<?xml version="1.0" standalone="no"?>
<!DOCTYPE svg PUBLIC "-//W3C//DTD SVG 1.1//EN" "http://www.w3.org/Graphics/SVG/1.1/DTD/svg11.dtd" >
<svg viewBox="0 -410 2048 2048">
  <g transform="matrix(1 0 0 -1 0 1638)">
   <path fill="currentColor"
d="M699 705q-40 -8 -89 -21.5t-91.5 -32.5t-71 -43.5t-28.5 -54.5q0 -58 60 -85.5t172 -27.5q44 0 86.5 9.5t80 24t67.5 31.5t48 32v548h-168v235h747v-235h-325v-1085h-254v253q-53 -23 -128 -43t-166 -20q-49 0 -104 5.5t-108 19t-101 37.5t-84.5 61.5t-58 90t-21.5 123.5
q0 42 14 87t40 87q-186 109 -186 335q0 88 26 159.5t73.5 122.5t114 84t147.5 33q60 0 106.5 -19.5t83.5 -54.5t60 -83.5t23 -105.5q0 -59 -22 -103t-57.5 -73.5t-80 -44.5t-90.5 -15q-66 0 -120 24q18 -34 49 -59.5t70 -36.5q38 17 90.5 34.5t121.5 35.5zM409 1144
q16 0 29 9t13 26q0 20 -13.5 35.5t-40.5 15.5q-42 0 -74 -23q16 -26 36.5 -44.5t49.5 -18.5z" />
  </g>

</svg>
