<?xml version="1.0" standalone="no"?>
<!DOCTYPE svg PUBLIC "-//W3C//DTD SVG 1.1//EN" "http://www.w3.org/Graphics/SVG/1.1/DTD/svg11.dtd" >
<svg viewBox="0 -410 2048 2048">
  <g transform="matrix(1 0 0 -1 0 1638)">
   <path fill="currentColor"
d="M1672 1320v-235h-763v-274q50 32 98.5 46t106.5 14q78 0 141 -26t107.5 -73t68 -113.5t23.5 -148.5q0 -52 -15.5 -107.5t-42 -110.5t-61.5 -106t-74 -93l-157 195q20 21 40 50.5t35.5 60.5t25.5 61t10 53q0 35 -11.5 59t-29 39t-36.5 21.5t-34 6.5q-28 0 -52.5 -8.5
t-47.5 -24t-46.5 -37t-48.5 -46.5v-523h-254v353q-48 -26 -109 -47.5t-123 -21.5q-102 0 -172.5 32t-113.5 81.5t-62 109.5t-19 117q0 74 28 135.5t78 106t120 69.5t154 25q70 0 124.5 -14.5t94.5 -31.5v171h-655v235h1672zM655 658q-17 9 -39.5 20.5t-50 21.5t-60 17
t-69.5 7q-129 0 -129 -89q0 -57 32 -85.5t84 -28.5q28 0 59.5 11.5t62.5 28t59.5 36t50.5 36.5v25z" />
  </g>

</svg>
