<?xml version="1.0" standalone="no"?>
<!DOCTYPE svg PUBLIC "-//W3C//DTD SVG 1.1//EN" "http://www.w3.org/Graphics/SVG/1.1/DTD/svg11.dtd" >
<svg viewBox="0 -410 2048 2048">
  <g transform="matrix(1 0 0 -1 0 1638)">
   <path fill="currentColor"
d="M1512 1085h-324v-1085h-254v296q-69 -32 -143.5 -49t-135.5 -17q-82 0 -170 30t-169 84.5t-148.5 130t-106.5 166.5l100 150q70 -34 98 -34q70 0 125.5 33.5t89.5 90.5q-48 -21 -107 -21q-69 0 -122 21t-89 57t-54.5 84.5t-18.5 103.5q0 58 24 109t65.5 88t98 58.5
t121.5 21.5q79 0 144 -27.5t111 -77t71 -118.5t25 -151q0 -78 -23 -153t-64 -138.5t-99.5 -111t-128.5 -69.5q24 -18 53.5 -34t60.5 -29t60.5 -20.5t52.5 -7.5q69 0 143 28t136 72v519h-156v235h734v-235zM361 1060q26 0 61 17t61 57q-19 23 -41.5 36.5t-47.5 13.5
q-78 0 -78 -64q0 -30 15.5 -45t29.5 -15z" />
  </g>

</svg>
