<?xml version="1.0" standalone="no"?>
<!DOCTYPE svg PUBLIC "-//W3C//DTD SVG 1.1//EN" "http://www.w3.org/Graphics/SVG/1.1/DTD/svg11.dtd" >
<svg viewBox="0 -410 2048 2048">
  <g transform="matrix(1 0 0 -1 0 1638)">
   <path fill="currentColor"
d="M1023 1101q0 -80 -34 -154.5t-104 -128.5q102 -52 155.5 -147.5t53.5 -215.5q0 -106 -39 -194t-107.5 -151.5t-161 -98.5t-199.5 -35q-108 0 -198 34.5t-156 97.5t-104.5 151.5t-44.5 197.5h281q0 -51 14.5 -97t43 -80.5t69.5 -54.5t95 -20q52 0 94.5 18.5t72.5 51t46 78
t16 99.5q0 112 -65 170.5t-192 58.5h-115v228h87q215 0 215 195q0 85 -44.5 129.5t-127.5 44.5q-172 0 -196 -221h-278q12 110 52.5 194t102.5 141t142.5 86t172.5 29q103 0 186.5 -30t143 -84t91.5 -128.5t32 -163.5z" />
  </g>

</svg>
