<?xml version="1.0" standalone="no"?>
<!DOCTYPE svg PUBLIC "-//W3C//DTD SVG 1.1//EN" "http://www.w3.org/Graphics/SVG/1.1/DTD/svg11.dtd" >
<svg viewBox="0 -410 2048 2048">
  <g transform="matrix(1 0 0 -1 0 1638)">
   <path fill="currentColor"
d="M1192 1085h-314v-324h-536q-20 0 -32.5 -15.5t-12.5 -36.5q0 -28 18.5 -43.5t52.5 -15.5q18 0 56 5t79.5 10.5t78.5 10.5t55 5q82 0 149.5 -24t116.5 -66t76 -99.5t27 -125.5q0 -73 -30 -138t-84 -116.5t-129 -86t-165 -45.5l174 -250l-220 -134l-254 405
q-63 14 -132.5 61t-135.5 134l187 171q30 -46 62 -76t66 -47q69 -33 127 -33q279 0 279 153q0 34 -27 56q-28 24 -69 24q-18 0 -52.5 -5t-72 -10.5t-72 -10.5t-52.5 -5q-82 0 -147.5 21.5t-111 60.5t-70 93.5t-24.5 120.5q0 63 21 115.5t58.5 90t90.5 58.5t117 21h285v91
h-625v235h442q-48 55 -73.5 107t-25.5 117q0 67 26.5 124.5t73 99.5t109.5 66t136 24q25 0 57.5 -5.5t72.5 -16.5v-240q-83 44 -124 44q-115 0 -115 -103q0 -27 17.5 -52.5t47.5 -53.5t69 -57t82 -54h397v-235z" />
  </g>

</svg>
