<?xml version="1.0" standalone="no"?>
<!DOCTYPE svg PUBLIC "-//W3C//DTD SVG 1.1//EN" "http://www.w3.org/Graphics/SVG/1.1/DTD/svg11.dtd" >
<svg viewBox="0 -410 2048 2048">
  <g transform="matrix(1 0 0 -1 0 1638)">
   <path fill="currentColor"
d="M840 895q0 -81 -15.5 -156.5t-48.5 -140t-85.5 -115t-126.5 -81.5l278 -306l-186 -172l-601 654l187 174l138 -151q38 2 72 18.5t62 46t48 69.5t29 88q-43 -31 -96 -48t-110 -17q-76 0 -132.5 22t-94.5 60.5t-57 89t-19 107.5q0 68 27 125.5t73.5 99.5t109 65.5
t134.5 23.5q97 0 174 -32.5t130 -92.5t81.5 -144t28.5 -187zM1563 1085h-297v-1085h-254v1085h-110v235h661v-235zM404 989q14 0 29 3t30 11t30 23t30 38q-22 22 -46.5 35t-50.5 13q-44 0 -71.5 -20t-27.5 -55q0 -21 23.5 -34.5t53.5 -13.5z" />
  </g>

</svg>
