<?xml version="1.0" standalone="no"?>
<!DOCTYPE svg PUBLIC "-//W3C//DTD SVG 1.1//EN" "http://www.w3.org/Graphics/SVG/1.1/DTD/svg11.dtd" >
<svg viewBox="0 -410 2048 2048">
  <g transform="matrix(1 0 0 -1 0 1638)">
   <path fill="currentColor"
d="M616 1278q-94 0 -158 -95t-88 -275q118 84 262 84q96 0 180.5 -37t146.5 -103t98 -156.5t36 -197.5t-34.5 -202t-97.5 -166t-152.5 -112.5t-198.5 -41.5q-125 0 -222.5 47.5t-164.5 139.5t-102 226t-35 308q0 810 539 810q87 0 162.5 -27.5t135 -82t99.5 -136t55 -190.5
h-280q-24 207 -181 207zM600 764q-121 0 -242 -123q7 -212 72.5 -324t176.5 -112q48 0 86.5 22t65.5 60t41.5 89t14.5 110q0 60 -15 111t-43 88t-68 58t-89 21z" />
  </g>

</svg>
