<?xml version="1.0" standalone="no"?>
<!DOCTYPE svg PUBLIC "-//W3C//DTD SVG 1.1//EN" "http://www.w3.org/Graphics/SVG/1.1/DTD/svg11.dtd" >
<svg viewBox="0 -410 2048 2048">
  <g transform="matrix(1 0 0 -1 0 1638)">
   <path fill="currentColor"
d="M1192 1085h-341v-324h-463q-30 0 -52 -21.5t-22 -50.5q0 -35 20 -57q45 22 101 35.5t122 13.5q100 0 175 -29t124 -77t73.5 -110t24.5 -127q0 -50 -19.5 -97.5t-47 -88t-57 -72t-48.5 -50.5l-178 166l48 48q16 16 34.5 36.5t18.5 45.5q0 16 -6 35t-22.5 36t-46.5 28.5
t-78 11.5q-42 0 -81 -12t-68.5 -35t-47.5 -56t-18 -74q0 -49 17 -89.5t46.5 -75t68.5 -62.5t82 -52t88 -45t87 -39l-114 -202q-89 25 -181.5 72t-168.5 116.5t-124.5 163.5t-48.5 214q0 44 16 100.5t54 113.5q-43 44 -68 98.5t-25 115.5t22 116t61 96.5t93 66t118 24.5h237
v93h-597v235h1192v-235z" />
  </g>

</svg>
