<?xml version="1.0" standalone="no"?>
<!DOCTYPE svg PUBLIC "-//W3C//DTD SVG 1.1//EN" "http://www.w3.org/Graphics/SVG/1.1/DTD/svg11.dtd" >
<svg viewBox="0 -410 2048 2048">
  <g transform="matrix(1 0 0 -1 0 1638)">
   <path fill="currentColor"
d="M1192 1085h-314v-324h-536q-20 0 -32.5 -15t-12.5 -37q0 -27 20 -43t51 -16q21 0 60.5 5t81 10.5t77.5 10.5t50 5q82 0 149.5 -23t116 -64t75 -98.5t26.5 -127.5q0 -74 -29.5 -140t-82.5 -117.5t-128.5 -85.5t-166.5 -44l175 -251l-220 -134l-254 405q-61 14 -131 59.5
t-137 135.5l187 171q30 -46 62 -76t66 -47q69 -33 127 -33q279 0 279 153q0 34 -27 56q-28 24 -69 24q-11 0 -30.5 -2.5t-43.5 -5.5t-50 -7.5t-50 -7.5l-44 -5.5t-31 -2.5q-81 0 -146.5 21t-111.5 60t-70.5 93.5t-24.5 121.5q0 64 20.5 116.5t58.5 90t90.5 58t117.5 20.5
h285v91h-625v235h1192v-235z" />
  </g>

</svg>
