<?xml version="1.0" standalone="no"?>
<!DOCTYPE svg PUBLIC "-//W3C//DTD SVG 1.1//EN" "http://www.w3.org/Graphics/SVG/1.1/DTD/svg11.dtd" >
<svg viewBox="-15 -410 2218 2048">
  <g transform="matrix(1 0 0 -1 0 1638)">
   <path fill="currentColor"
d="M2218 1085h-328v-1085h-253v1085h-289v-1085h-254v560h-261q33 -42 49 -95t16 -104q0 -85 -32.5 -158t-89.5 -126t-134.5 -83.5t-167.5 -30.5q-77 0 -147.5 19t-132.5 58t-115 99t-94 141l206 100q123 -184 281 -184q34 0 66.5 13t58 34.5t41 50.5t15.5 62q0 51 -17 91
t-48.5 67t-75.5 41t-98 14q-19 0 -49 -3.5t-75 -11.5v248q30 -5 50 -7t35 -2q46 0 88 13.5t74 37.5t51 58t19 76q0 31 -11.5 57.5t-31 46.5t-44.5 31.5t-53 11.5q-49 0 -112 -18.5t-141 -56.5l-69 212q187 96 327 96q163 0 271 -100q116 -105 116 -265q0 -109 -65 -198h300
v290h-162v235h1286v-235z" />
  </g>

</svg>
