<?xml version="1.0" standalone="no"?>
<!DOCTYPE svg PUBLIC "-//W3C//DTD SVG 1.1//EN" "http://www.w3.org/Graphics/SVG/1.1/DTD/svg11.dtd" >
<svg viewBox="0 -410 2048 2048">
  <g transform="matrix(1 0 0 -1 0 1638)">
   <path fill="currentColor"
d="M1801 1118q-200 137 -341 223t-229 127q-158 72 -300.5 109.5t-276.5 37.5q-77 0 -139.5 -13.5t-106.5 -39t-68.5 -63t-24.5 -84.5q0 -9 1.5 -23.5t5.5 -29t23 -42.5h355v-235h-232v-1085h-254v1085h-214v235h97q-5 9 -10.5 23.5t-9.5 31t-5.5 32t-1.5 25.5
q0 99 41.5 178t117 134t181 84.5t233.5 29.5q564 0 1267 -571z" />
  </g>

</svg>
