<?xml version="1.0" standalone="no"?>
<!DOCTYPE svg PUBLIC "-//W3C//DTD SVG 1.1//EN" "http://www.w3.org/Graphics/SVG/1.1/DTD/svg11.dtd" >
<svg viewBox="0 -410 2048 2048">
  <g transform="matrix(1 0 0 -1 0 1638)">
   <path fill="currentColor"
d="M1836 1212q-187 115 -339.5 191.5t-272.5 112.5q-147 45 -297 66t-304 21q-158 0 -236 -34t-78 -113q0 -15 2.5 -35.5t7.5 -40t30 -60.5h361v-235h-242v-1085h-254v1085h-214v235h96q-6 12 -11.5 31.5t-10 40t-7.5 40t-3 32.5q0 394 531 394q183 0 358.5 -33.5
t350.5 -101.5t351 -171t359 -242z" />
  </g>

</svg>
