<?xml version="1.0" standalone="no"?>
<!DOCTYPE svg PUBLIC "-//W3C//DTD SVG 1.1//EN" "http://www.w3.org/Graphics/SVG/1.1/DTD/svg11.dtd" >
<svg viewBox="0 -410 2048 2048">
  <g transform="matrix(1 0 0 -1 0 1638)">
   <path fill="currentColor"
d="M1246 1085h-385v-368h-238q-87 0 -147 -12.5t-97 -39.5t-53 -69t-16 -100q0 -41 13.5 -76.5t37.5 -61.5t58 -41t75 -15q31 0 65.5 7.5t63 20.5t51.5 31.5t24 36.5l-35 145l242 61l173 -719l-223 -63l-92 332q-33 -25 -75.5 -44t-89.5 -30l-323 -305l-148 157l185 163
q-59 22 -106.5 61.5t-82 92t-53 115.5t-18.5 132q0 105 35.5 190t100.5 144.5t157 92t205 32.5h57v130h-607v235h1246v-235z" />
  </g>

</svg>
