<?xml version="1.0" standalone="no"?>
<!DOCTYPE svg PUBLIC "-//W3C//DTD SVG 1.1//EN" "http://www.w3.org/Graphics/SVG/1.1/DTD/svg11.dtd" >
<svg viewBox="0 -410 2048 2048">
  <g transform="matrix(1 0 0 -1 0 1638)">
   <path fill="currentColor"
d="M1453 1108q-73 57 -141 110.5t-126 98.5t-103.5 80t-72.5 54q-123 85 -225 126.5t-187 41.5q-62 0 -115 -15t-92 -42.5t-61 -65t-22 -82.5q0 -8 1.5 -22t4 -28t16.5 -44h370v-235h-232v-1085h-254v1085h-214v235h72q-2 8 -3.5 23t-2 30.5t-1 30t-0.5 22.5q0 93 42 172
t113.5 137t165.5 90.5t199 32.5q128 0 253 -47.5t254 -143.5q25 -20 69.5 -54.5t103.5 -82t131.5 -105.5t153.5 -125z" />
  </g>

</svg>
