<?xml version="1.0" standalone="no"?>
<!DOCTYPE svg PUBLIC "-//W3C//DTD SVG 1.1//EN" "http://www.w3.org/Graphics/SVG/1.1/DTD/svg11.dtd" >
<svg viewBox="0 -416 2048 2048">
  <g transform="matrix(1 0 0 -1 0 1638)">
   <path fill="currentColor"
d="M1246 1085h-398v-378h-227q-296 0 -296 -224q0 -105 53.5 -164.5t157.5 -79.5q-10 23 -16 50.5t-6 53.5q0 124 84 202q77 76 198 76q63 0 113.5 -21.5t86.5 -60t55.5 -90t19.5 -111.5q0 -78 -31 -141t-91 -106.5t-147 -67t-199 -23.5q-120 0 -218 36t-168 102
t-108.5 158.5t-38.5 205.5q0 99 35.5 180.5t99 139.5t151.5 90t193 32h45v141h-594v235h1246v-235zM856 330q0 31 -18.5 53.5t-43.5 22.5q-26 0 -44.5 -22.5t-18.5 -53.5q0 -30 17.5 -53t45.5 -23q26 0 44 23t18 53zM755 -263l-156 -153l-158 153l158 158z" />
  </g>

</svg>
