<?xml version="1.0" standalone="no"?>
<!DOCTYPE svg PUBLIC "-//W3C//DTD SVG 1.1//EN" "http://www.w3.org/Graphics/SVG/1.1/DTD/svg11.dtd" >
<svg viewBox="0 -410 2048 2048">
  <g transform="matrix(1 0 0 -1 0 1638)">
   <path fill="currentColor"
d="M832 895q0 -81 -16.5 -156.5t-51 -140t-87.5 -115t-127 -81.5l278 -306l-186 -172l-602 654l187 174l138 -151q38 2 72.5 18.5t62 46t47.5 69.5t29 88q-43 -31 -95.5 -48t-110.5 -17q-76 0 -132.5 22t-94.5 60.5t-57 89t-19 107.5q0 68 27 125.5t73.5 99.5t109.5 65.5
t134 23.5q97 0 175 -32.5t132.5 -92.5t84 -144t29.5 -187zM389 989q14 0 29 3t30 11t30 23t30 38q-22 22 -46.5 35t-50.5 13q-44 0 -71 -20t-27 -55q0 -21 23 -34.5t53 -13.5z" />
  </g>

</svg>
