<?xml version="1.0" standalone="no"?>
<!DOCTYPE svg PUBLIC "-//W3C//DTD SVG 1.1//EN" "http://www.w3.org/Graphics/SVG/1.1/DTD/svg11.dtd" >
<svg viewBox="0 -410 2048 2048">
  <g transform="matrix(1 0 0 -1 0 1638)">
   <path fill="currentColor"
d="M1393 517q-22 -27 -54 -55t-74 -51t-93.5 -37.5t-112.5 -14.5q-84 0 -151 21t-114.5 61.5t-73 101t-25.5 138.5q0 66 24.5 124t67.5 101.5t100.5 69t123.5 25.5q22 0 54 -7t75 -20v-232q-83 34 -106 34q-50 0 -79 -29.5t-29 -80.5q0 -23 11 -38.5t28.5 -25.5t40.5 -14.5
t47 -4.5q62 0 116.5 20t99 49t76.5 63t48 61v-259zM1393 187q-111 -95 -248.5 -141t-308.5 -46q-100 0 -186 25t-160 68t-136.5 102t-114.5 127.5t-95 142.5t-77 149l196 191l74 -134q14 16 19.5 33.5t5.5 41.5v339h-362v235h1458v-235h-842v-303q0 -69 -6 -116.5
t-23.5 -82.5t-48 -62.5t-79.5 -58.5q36 -51 73.5 -93t81.5 -72t98 -47t124 -17q89 0 160.5 13t136 40.5t127 70.5t133.5 104v-274z" />
  </g>

</svg>
