<?xml version="1.0" standalone="no"?>
<!DOCTYPE svg PUBLIC "-//W3C//DTD SVG 1.1//EN" "http://www.w3.org/Graphics/SVG/1.1/DTD/svg11.dtd" >
<svg viewBox="0 -410 2048 2048">
  <g transform="matrix(1 0 0 -1 0 1638)">
   <path fill="currentColor"
d="M1778 1085h-330v-1085h-253v107q-166 -107 -367 -107q-316 0 -466 159q-187 179 -311 455l203 170l67 -131q22 21 31 44t9 49v339h-361v235h1778v-235zM827 233q94 5 177 35t149 87q-54 -16 -109 -16q-74 0 -138 24.5t-111 68t-74 104t-27 132.5q0 70 24 130.5
t66.5 105.5t100.5 71t126 26q21 0 53 -7t75 -20v-232q-82 34 -105 34q-51 0 -80.5 -29.5t-29.5 -80.5q0 -44 35 -74q36 -29 87 -29q38 0 75.5 10t72.5 29v483h-579v-303q0 -128 -24 -186q-18 -46 -55.5 -85.5t-88.5 -69.5q46 -60 92 -100t92.5 -64t95 -34t100.5 -10z" />
  </g>

</svg>
