<?xml version="1.0" standalone="no"?>
<!DOCTYPE svg PUBLIC "-//W3C//DTD SVG 1.1//EN" "http://www.w3.org/Graphics/SVG/1.1/DTD/svg11.dtd" >
<svg viewBox="0 -410 2048 2048">
  <g transform="matrix(1 0 0 -1 0 1638)">
   <path fill="currentColor"
d="M1244 1085h-392q10 -23 15 -57.5t5 -61.5q0 -52 -14.5 -88.5t-43.5 -68.5q39 -22 77 -56t68 -80t48.5 -104.5t18.5 -130.5q0 -105 -41.5 -192.5t-113.5 -150.5t-170 -97.5t-212 -34.5q-271 0 -472 225l198 177q123 -147 266 -147q63 0 116 14t91.5 40.5t60.5 64t22 84.5
q0 44 -15.5 80.5t-42 63t-62.5 41t-77 14.5q-77 0 -110 -6q-15 -2 -49.5 -14t-93.5 -36l-90 214q52 26 128 50.5t167 34.5q33 9 51 20t26.5 24.5t10.5 29t2 34.5q0 50 -30.5 82t-97.5 32h-488v235h1244v-235z" />
  </g>

</svg>
