<?xml version="1.0" standalone="no"?>
<!DOCTYPE svg PUBLIC "-//W3C//DTD SVG 1.1//EN" "http://www.w3.org/Graphics/SVG/1.1/DTD/svg11.dtd" >
<svg viewBox="0 -410 2048 2048">
  <g transform="matrix(1 0 0 -1 0 1638)">
   <path fill="currentColor"
d="M1565 1085h-327v-1085h-254v506h-280v-89q0 -72 -23.5 -129t-67.5 -96t-107.5 -60t-143.5 -21q-63 0 -118 24t-95.5 65t-64 97t-23.5 120q0 324 353 324h30v88q-17 -5 -37 -7.5t-43 -2.5q-64 0 -116 20.5t-89 57.5t-57 88.5t-20 112.5q0 71 23 128.5t64 98.5t96.5 63.5
t121.5 22.5q84 0 144 -22.5t98.5 -73.5t56.5 -134t18 -204v-236h280v344h-201v235h782v-235zM444 506h-34q-37 0 -61.5 -5.5t-39.5 -17.5t-21.5 -30.5t-6.5 -43.5q0 -19 5.5 -36t14.5 -30t22 -21t28 -8q93 0 93 123v69zM355 1034q29 0 48 6t41 20q0 108 -64 118
q-38 0 -59.5 -17.5t-21.5 -53.5q0 -73 56 -73z" />
  </g>

</svg>
