<?xml version="1.0" standalone="no"?>
<!DOCTYPE svg PUBLIC "-//W3C//DTD SVG 1.1//EN" "http://www.w3.org/Graphics/SVG/1.1/DTD/svg11.dtd" >
<svg viewBox="0 -410 2048 2048">
  <g transform="matrix(1 0 0 -1 0 1638)">
   <path fill="currentColor"
d="M1671 1117q-108 87 -223.5 176t-241 160.5t-263 116.5t-289.5 45q-72 0 -134 -13t-107.5 -38t-71 -62.5t-25.5 -86.5q0 -9 1.5 -23.5t5.5 -29t22 -42.5h365v-235h-242v-1085h-253v1085h-215v235h83q-2 9 -4.5 23.5t-4.5 31t-3 32t-1 25.5q0 96 41.5 175t117 134.5t181 86
t233.5 30.5q505 0 1153 -576z" />
  </g>

</svg>
