<?xml version="1.0" standalone="no"?>
<!DOCTYPE svg PUBLIC "-//W3C//DTD SVG 1.1//EN" "http://www.w3.org/Graphics/SVG/1.1/DTD/svg11.dtd" >
<svg viewBox="0 -410 2048 2048">
  <g transform="matrix(1 0 0 -1 0 1638)">
   <path fill="currentColor"
d="M1097 0h-1016q0 183 86 313q40 60 115 133t185 162q98 79 165 139t108 112.5t58.5 103.5t17.5 112q0 96 -54 149.5t-154 53.5q-42 0 -80 -16.5t-67 -49.5t-48.5 -82.5t-23.5 -114.5h-279q9 112 48.5 203t104.5 155t153.5 99t195.5 35q115 0 205 -33.5t151 -92t93 -138
t32 -172.5q0 -85 -23 -157.5t-69 -137.5q-43 -60 -129.5 -143.5t-211.5 -188.5q-74 -63 -127.5 -111.5t-79.5 -78.5h644v-254z" />
  </g>

</svg>
