<?xml version="1.0" standalone="no"?>
<!DOCTYPE svg PUBLIC "-//W3C//DTD SVG 1.1//EN" "http://www.w3.org/Graphics/SVG/1.1/DTD/svg11.dtd" >
<svg viewBox="0 -410 2048 2048">
  <g transform="matrix(1 0 0 -1 0 1638)">
   <path fill="currentColor"
d="M1040 1117q0 -197 -192 -335q247 -142 247 -367q0 -98 -37 -179t-103.5 -139t-160 -89.5t-206.5 -31.5q-112 0 -205 31.5t-159.5 89.5t-103.5 138.5t-37 179.5q0 114 60.5 205t185.5 162q-93 69 -142.5 153.5t-49.5 181.5q0 85 33 157t92 123.5t142 80.5t184 29
t184.5 -29t143 -81t92 -123.5t32.5 -156.5zM415 1117q0 -133 173 -217q175 84 175 217q0 77 -45.5 119t-129.5 42q-81 0 -127 -42t-46 -119zM817 415q0 38 -14 69.5t-42 59t-71.5 53.5t-101.5 53q-59 -28 -103 -55.5t-73 -55.5q-52 -52 -52 -124q0 -50 16.5 -89t46.5 -66
t72 -41t93 -14t93 14.5t72.5 41.5t47 66t16.5 88z" />
  </g>

</svg>
