<?xml version="1.0" standalone="no"?>
<!DOCTYPE svg PUBLIC "-//W3C//DTD SVG 1.1//EN" "http://www.w3.org/Graphics/SVG/1.1/DTD/svg11.dtd" >
<svg viewBox="0 -410 2048 2048">
  <g transform="matrix(1 0 0 -1 0 1638)">
   <path fill="currentColor"
d="M1352 1320v-235h-442v-274q50 32 98.5 46t106.5 14q91 0 192 -51l-48 -279q-19 21 -41.5 39t-44 31t-40 20.5t-28.5 7.5q-28 0 -52.5 -8.5t-47.5 -24t-46.5 -37t-48.5 -46.5v-523h-254v353q-48 -26 -109 -47.5t-124 -21.5q-102 0 -172.5 32t-113.5 81.5t-62 109.5
t-19 117q0 74 28 135.5t78.5 106t120 69.5t153.5 25q71 0 125.5 -14.5t94.5 -31.5v171h-656v235h1352zM656 658q-17 9 -39.5 20.5t-50 21.5t-60.5 17t-70 7q-129 0 -129 -89q0 -57 32 -85.5t84 -28.5q28 0 59.5 11.5t63 28t60 36t50.5 36.5v25z" />
  </g>

</svg>
