<?xml version="1.0" standalone="no"?>
<!DOCTYPE svg PUBLIC "-//W3C//DTD SVG 1.1//EN" "http://www.w3.org/Graphics/SVG/1.1/DTD/svg11.dtd" >
<svg viewBox="0 -410 2048 2048">
  <g transform="matrix(1 0 0 -1 0 1638)">
   <path fill="currentColor"
d="M1246 1160h-421v-332h-453q-27 0 -50.5 -10t-41 -27.5t-28 -40.5t-10.5 -49q0 -38 17.5 -69t46.5 -51q53 29 121 46t156 17q131 0 221 -35.5t146 -90.5t80.5 -121t24.5 -127q0 -48 -14 -88t-34 -72.5t-42 -56t-38 -38.5l-117 114q10 11 23.5 24t26.5 29.5t22 37.5t9 47
q0 16 -12.5 49t-44.5 68l-330 -294l-103 108l298 262q-51 14 -116 14q-81 0 -140.5 -21t-98.5 -55t-58 -77t-19 -86q0 -65 18.5 -115.5t49.5 -90t72 -70.5t86.5 -55.5t93 -45.5t90.5 -40l-86 -141q-56 16 -114 41.5t-113 60.5t-103.5 80.5t-85 102t-57.5 125t-21 149.5
q0 24 4.5 53.5t15 61t27 64.5t41.5 64q-51 42 -82 100t-31 122q0 57 20 108t56 90t85.5 61.5t108.5 22.5h307v177h-649v160h1246v-160z" />
  </g>

</svg>
