<?xml version="1.0" standalone="no"?>
<!DOCTYPE svg PUBLIC "-//W3C//DTD SVG 1.1//EN" "http://www.w3.org/Graphics/SVG/1.1/DTD/svg11.dtd" >
<svg viewBox="0 -410 2048 2048">
  <g transform="matrix(1 0 0 -1 0 1638)">
   <path fill="currentColor"
d="M774 797q316 -145 316 -394q0 -96 -36.5 -175t-102.5 -135.5t-158 -87.5t-204 -31q-111 0 -203 31t-158 87t-102.5 135.5t-36.5 175.5q0 249 316 394q-257 149 -257 370q0 82 32 151.5t90 119t139.5 77.5t179.5 28q99 0 180 -28t139 -78t90 -119t32 -151
q0 -222 -256 -370zM589 878q240 106 240 289q0 106 -63 164.5t-177 58.5q-112 0 -175.5 -58.5t-63.5 -164.5q0 -182 239 -289zM888 403q0 98 -72 169q-71 71 -227 140q-154 -69 -227 -140q-71 -71 -71 -169q0 -65 21.5 -116.5t60.5 -87t94 -54t122 -18.5q66 0 121 19
t94.5 54.5t61.5 86.5t22 116z" />
  </g>

</svg>
