<?xml version="1.0" standalone="no"?>
<!DOCTYPE svg PUBLIC "-//W3C//DTD SVG 1.1//EN" "http://www.w3.org/Graphics/SVG/1.1/DTD/svg11.dtd" >
<svg viewBox="-2 -410 2048 2048">
  <g transform="matrix(1 0 0 -1 0 1638)">
   <path fill="currentColor"
d="M931 417q-78 -108 -192 -166t-269 -58q-78 0 -148.5 32t-123 86.5t-83 126t-30.5 149.5q0 79 31.5 148.5t89.5 121t139.5 81t180.5 29.5q50 0 95.5 -9t83.5 -20t67 -22.5t45 -15.5v-154q-15 6 -43.5 17.5t-68 23.5t-88.5 21t-106 9q-60 0 -109 -19.5t-83 -51.5t-52 -74
t-18 -88q0 -50 19 -93t51 -74.5t75.5 -49.5t90.5 -18q71 0 137.5 22t124 59.5t105 86t79.5 101.5v-201zM977 1160h-979v160h979v-160z" />
  </g>

</svg>
