<?xml version="1.0" standalone="no"?>
<!DOCTYPE svg PUBLIC "-//W3C//DTD SVG 1.1//EN" "http://www.w3.org/Graphics/SVG/1.1/DTD/svg11.dtd" >
<svg viewBox="0 -410 2048 2048">
  <g transform="matrix(1 0 0 -1 0 1638)">
   <path fill="currentColor"
d="M1565 1160h-789q38 -25 54.5 -61.5t16.5 -95.5q0 -74 -35 -117.5t-68 -66.5q26 -6 43.5 -15.5t37.5 -21.5q43 27 96.5 45t107.5 18q73 0 134 -23t104 -68.5t67 -113t24 -155.5q0 -119 -37 -237h-158q16 52 28 111.5t12 125.5q0 61 -17.5 101.5t-42 64.5t-51.5 33.5
t-45 9.5q-38 0 -63.5 -7t-42.5 -17q32 -46 53 -106t21 -136q0 -104 -41 -190t-113 -148t-169 -96t-210 -34q-273 0 -445 192l142 127q115 -138 294 -138q79 0 146 18.5t115 53.5t75.5 85t27.5 112q0 58 -20.5 107t-56 83.5t-83.5 54t-103 19.5q-87 0 -128.5 -7t-119.5 -38
l-62 146q21 9 46.5 19t58 19t75 16.5t86.5 12.5q54 19 97 56.5t43 109.5q0 88 -47.5 120t-141.5 32h-481v160h1565v-160z" />
  </g>

</svg>
