<?xml version="1.0" standalone="no"?>
<!DOCTYPE svg PUBLIC "-//W3C//DTD SVG 1.1//EN" "http://www.w3.org/Graphics/SVG/1.1/DTD/svg11.dtd" >
<svg viewBox="0 -410 2048 2048">
  <g transform="matrix(1 0 0 -1 0 1638)">
   <path fill="currentColor"
d="M1352 1085h-491v-180q76 -27 138.5 -71.5t106.5 -100.5t68 -122t24 -137q0 -101 -44 -187.5t-119 -150.5t-175 -100t-213 -36q-210 0 -369 124q-179 137 -179 351q0 90 39.5 171.5t108.5 144.5t161.5 102.5t198.5 47.5v144h-607v235h1352v-235zM942 472q0 49 -23.5 93.5
t-64 77.5t-93.5 52.5t-111 19.5t-111 -19t-93.5 -51.5t-65 -77t-24.5 -95.5q0 -52 24 -96.5t64.5 -77t93.5 -51t112 -18.5t112 19t93 52t63.5 77t23.5 95z" />
  </g>

</svg>
