<?xml version="1.0" standalone="no"?>
<!DOCTYPE svg PUBLIC "-//W3C//DTD SVG 1.1//EN" "http://www.w3.org/Graphics/SVG/1.1/DTD/svg11.dtd" >
<svg viewBox="-2 -410 2048 2048">
  <g transform="matrix(1 0 0 -1 0 1638)">
   <path fill="currentColor"
d="M1886 1160h-945v-483q38 -22 87 -22q99 0 179 76q-18 42 -18 81q0 63 40 102t102 39q56 0 96 -38t40 -95q0 -64 -49 -104l154 -343q-139 -57 -194 -102q-92 -75 -92 -189q0 -90 63 -159q64 -72 155 -72q156 0 257 110l47 -119q-123 -122 -307 -122q-165 0 -267 106
t-102 271q0 105 61.5 198t157.5 138l-88 179q-130 -104 -222 -104q-55 0 -100 18v-526h-176v439l-517 -235l-72 163l545 248q-85 98 -125 131q-82 68 -162 68q-110 0 -210 -111l-64 144q147 131 267 131q100 0 191 -68q59 -43 147 -146v396h-767v160h1888v-160zM853 1247z
M853 86z" />
  </g>

</svg>
