<?xml version="1.0" standalone="no"?>
<!DOCTYPE svg PUBLIC "-//W3C//DTD SVG 1.1//EN" "http://www.w3.org/Graphics/SVG/1.1/DTD/svg11.dtd" >
<svg viewBox="-2 -410 2048 2048">
  <g transform="matrix(1 0 0 -1 0 1638)">
   <path fill="currentColor"
d="M1886 1160h-945v-473q81 -29 132 -29q96 0 124 49q-9 25 -9 53q0 60 39.5 104t100.5 44q54 0 92.5 -40.5t38.5 -92.5q0 -72 -49 -110l108 -227q-31 -15 -134 -63q-73 -34 -73 -108q0 -46 35 -81t81 -35q69 0 106 49l54 -120q-45 -52 -151 -53q-22 -38 -22 -88
q0 -41 27 -68.5t68 -27.5q80 0 153 61l51 -118q-93 -77 -202 -77q-86 0 -155 61q-76 67 -76 170q0 66 29 115q-39 16 -77 64q-51 66 -51 146q0 71 36.5 128t93.5 80l-56 114q-86 -68 -208 -68q-42 0 -106 17v-536h-176v444l-517 -235l-72 163l545 249q-84 84 -124 113
q-78 56 -154 56q-54 0 -116 -34.5t-92 -84.5l-73 165q124 137 271 137q96 0 186 -71q17 -14 146 -143v401h-767v160h1888v-160zM853 1247zM853 86z" />
  </g>

</svg>
