<?xml version="1.0" standalone="no"?>
<!DOCTYPE svg PUBLIC "-//W3C//DTD SVG 1.1//EN" "http://www.w3.org/Graphics/SVG/1.1/DTD/svg11.dtd" >
<svg viewBox="0 -410 2048 2048">
  <g transform="matrix(1 0 0 -1 0 1638)">
   <path fill="currentColor"
d="M1246 1160h-419v-167q158 -65 158 -244q0 -79 -43 -142.5t-115 -105.5v-194q158 -65 158 -244q0 -69 -33 -126.5t-90 -99t-132.5 -64.5t-159.5 -23t-155 20.5t-122.5 59.5t-80.5 94.5t-29 125.5q0 68 30.5 122t87 91t137 56.5t181.5 19.5h48v105q-23 -4 -47.5 -6
t-49.5 -2q-84 0 -155 20.5t-122.5 59.5t-80.5 94.5t-29 125.5q0 68 30.5 122t87 91t137 56.5t181.5 19.5h48v135h-667v160h1246v-160zM828 47q0 32 -15 58t-42 44t-65.5 28t-84.5 10q-285 0 -285 -141q0 -36 16.5 -64.5t46.5 -48.5t71 -31t90 -11q58 0 107 11t85 31.5t56 49
t20 64.5zM828 733q0 32 -15 58t-42 44t-65.5 28t-84.5 10q-285 0 -285 -141q0 -36 16.5 -64.5t46.5 -48.5t71 -31t90 -11q58 0 107 11t85 31.5t56 49t20 64.5z" />
  </g>

</svg>
