<?xml version="1.0" standalone="no"?>
<!DOCTYPE svg PUBLIC "-//W3C//DTD SVG 1.1//EN" "http://www.w3.org/Graphics/SVG/1.1/DTD/svg11.dtd" >
<svg viewBox="-2 -410 2048 2048">
  <g transform="matrix(1 0 0 -1 0 1638)">
   <path fill="currentColor"
d="M1246 1160h-418v-332h-441q-47 0 -79 -36t-32 -82q0 -54 42 -98q45 -48 109 -48q45 0 166.5 33t184.5 33q103 0 168 -62q60 -57 60 -137q0 -104 -86 -164q-39 -27 -142 -62q-86 -29 -86 -75q0 -66 101 -66q36 0 139 18v-123q-57 -18 -141 -18q-98 0 -167 48
q-80 54 -80 148q0 91 82 145q21 14 152 68q82 34 82 76q0 64 -63 64q-54 0 -172 -35.5t-171 -35.5q-113 -89 -113 -220q0 -137 122 -269q11 -11 230 -203l-119 -109q-94 82 -188 165q-102 93 -149 178q-61 108 -61 242q0 179 121 259q-76 27 -130.5 99.5t-54.5 148.5
q0 273 273 273h267v177h-654v160h1248v-160zM588 -96zM740 1247zM588 1247z" />
  </g>

</svg>
