<?xml version="1.0" standalone="no"?>
<!DOCTYPE svg PUBLIC "-//W3C//DTD SVG 1.1//EN" "http://www.w3.org/Graphics/SVG/1.1/DTD/svg11.dtd" >
<svg viewBox="0 -410 2048 2048">
  <g transform="matrix(1 0 0 -1 0 1638)">
   <path fill="currentColor"
d="M611 -26q-120 0 -218.5 38.5t-169.5 112.5t-110 181t-39 244q0 134 37.5 240.5t106 181t163.5 114.5t209 40q118 0 213.5 -39t163 -113t103.5 -181t36 -243v-47h-828q7 -95 34.5 -165.5t71 -117t101.5 -69.5t126 -23q49 0 97 13t86 38.5t62.5 63t25.5 85.5h205
q-13 -85 -54 -151t-103.5 -111t-144 -68.5t-174.5 -23.5zM899 657q-12 78 -39 137t-67 98.5t-91.5 59.5t-111.5 20q-59 0 -110.5 -19.5t-91.5 -59t-67.5 -98.5t-39.5 -138h618z" />
  </g>

</svg>
