<?xml version="1.0" standalone="no"?>
<!DOCTYPE svg PUBLIC "-//W3C//DTD SVG 1.1//EN" "http://www.w3.org/Graphics/SVG/1.1/DTD/svg11.dtd" >
<svg viewBox="-2 -410 2048 2048">
  <g transform="matrix(1 0 0 -1 0 1638)">
   <path fill="currentColor"
d="M1412 527q-47 -73 -137 -116q-86 -42 -176 -42q-146 0 -244 88q-102 92 -102 236q0 124 85.5 212t208.5 88q37 0 90 -17v-144q-29 12 -65 12q-77 0 -122 -45.5t-45 -122.5q0 -71 60 -117q55 -43 128 -43q192 0 319 187v-176zM1412 208q-208 -208 -555 -208
q-355 0 -537 243q-179 249 -239 368l139 135l79 -138q92 52 92 155v397h-393v160h1460v-160h-891v-358q0 -131 -23 -185q-33 -75 -167 -147q66 -101 144 -184q128 -129 336 -129q190 0 347 90q131 75 208 171v-210z" />
  </g>

</svg>
