<?xml version="1.0" standalone="no"?>
<!DOCTYPE svg PUBLIC "-//W3C//DTD SVG 1.1//EN" "http://www.w3.org/Graphics/SVG/1.1/DTD/svg11.dtd" >
<svg viewBox="-678 -410 2048 2048">
  <g transform="matrix(1 0 0 -1 0 1638)">
   <path fill="currentColor"
d="M-346 1575zM604 1160h-304v-1160h-176v1160h-126v160h50q-111 169 -165 230q-121 137 -230 137q-160 0 -160 -130q0 -97 135 -295l-133 -82q-173 224 -173 383q0 133 91 214q87 77 221 77q199 0 368 -184q62 -68 244 -350h358v-160zM-346 86zM198 1447z" />
  </g>

</svg>
