<?xml version="1.0" standalone="no"?>
<!DOCTYPE svg PUBLIC "-//W3C//DTD SVG 1.1//EN" "http://www.w3.org/Graphics/SVG/1.1/DTD/svg11.dtd" >
<svg viewBox="0 -410 2048 2048">
  <g transform="matrix(1 0 0 -1 0 1638)">
   <path fill="currentColor"
d="M1002 375q0 -210 -325 -415l-75 138q20 11 46.5 27.5t54.5 37.5t54.5 46.5t47.5 53t34 57.5t13 61q0 125 -80 255q-45 -28 -81.5 -48.5t-73 -33.5t-76 -19.5t-89.5 -6.5q-71 0 -140.5 26t-124 77.5t-88.5 127.5t-34 177q0 64 15.5 120t46.5 107t78 97.5t111 91.5l53 -136
q-48 -47 -77 -84.5t-45.5 -70t-22 -63t-5.5 -64.5q0 -37 17.5 -80t48.5 -79.5t74.5 -61t95.5 -24.5q135 0 236 79q-103 112 -103 193q0 39 16.5 74t44.5 62t65.5 43t78.5 16q51 0 90 -18t65.5 -47t39.5 -66t13 -75q0 -122 -106 -225q30 -53 50.5 -93.5t33 -79t18 -80.5
t5.5 -97zM864 951q0 65 -71 65q-66 0 -66 -64q0 -54 69 -117q68 54 68 116z" />
  </g>

</svg>
