<?xml version="1.0" standalone="no"?>
<!DOCTYPE svg PUBLIC "-//W3C//DTD SVG 1.1//EN" "http://www.w3.org/Graphics/SVG/1.1/DTD/svg11.dtd" >
<svg viewBox="0 -410 2048 2048">
  <g transform="matrix(1 0 0 -1 0 1638)">
   <path fill="currentColor"
d="M590 1126q118 0 213.5 -39t163 -113t103.5 -181t36 -243q0 -137 -37 -244t-104.5 -181t-162.5 -112.5t-212 -38.5q-115 0 -210 38t-163 111.5t-105.5 181t-37.5 245.5q0 136 37 243t104.5 181t162.5 113t212 39zM590 128q69 0 126.5 26.5t99 79t64.5 132t23 184.5
t-23 184t-64.5 132t-99 79.5t-126.5 26.5q-70 0 -127.5 -26.5t-99 -79.5t-64.5 -132t-23 -184t23 -184.5t64.5 -132t99 -79t127.5 -26.5z" />
  </g>

</svg>
