<?xml version="1.0" standalone="no"?>
<!DOCTYPE svg PUBLIC "-//W3C//DTD SVG 1.1//EN" "http://www.w3.org/Graphics/SVG/1.1/DTD/svg11.dtd" >
<svg viewBox="-2 -410 2048 2048">
  <g transform="matrix(1 0 0 -1 0 1638)">
   <path fill="currentColor"
d="M598 1575zM1493 1287l-61 -120q-277 249 -398 337q-254 190 -436 190q-151 0 -254 -71q-111 -76 -111 -200q0 -65 56 -103h421v-160h-303v-1160h-176v1160h-233v160h95q-24 59 -24 116q0 189 164 311q151 111 351 111q231 0 491 -198q113 -82 418 -373zM598 86z" />
  </g>

</svg>
