<?xml version="1.0" standalone="no"?>
<!DOCTYPE svg PUBLIC "-//W3C//DTD SVG 1.1//EN" "http://www.w3.org/Graphics/SVG/1.1/DTD/svg11.dtd" >
<svg viewBox="0 -410 2048 2048">
  <g transform="matrix(1 0 0 -1 0 1638)">
   <path fill="currentColor"
d="M537 -26q-448 0 -473 354h197q1 -200 274 -200q61 0 107 13t77.5 36.5t47.5 55t16 69.5q0 39 -12.5 63.5t-47 43t-96.5 36.5t-162 44q-98 24 -168.5 48t-116.5 58.5t-67.5 85t-21.5 127.5q0 68 29 126t82 101t129 67t169 24q434 0 441 -308h-193q-11 154 -233 154
q-50 0 -92 -9.5t-72.5 -28t-48 -46t-17.5 -62.5q0 -32 8 -53t38.5 -38t90 -35t163.5 -43q100 -25 174 -51t122.5 -62.5t72.5 -89.5t24 -132q0 -74 -31 -138t-88.5 -110.5t-139 -73t-182.5 -26.5z" />
  </g>

</svg>
