<?xml version="1.0" standalone="no"?>
<!DOCTYPE svg PUBLIC "-//W3C//DTD SVG 1.1//EN" "http://www.w3.org/Graphics/SVG/1.1/DTD/svg11.dtd" >
<svg viewBox="-2 -544 2048 2048">
  <g transform="matrix(1 0 0 -1 0 1638)">
   <path fill="currentColor"
d="M1246 1160h-420v-213h-361q-93 0 -93 -72q0 -74 94 -74q46 0 134 9.5t134 9.5q89 0 149 -43q67 -49 68 -135q1 -125 -97 -201q-94 -72 -235 -72q-170 0 -485 149l48 131q175 -88 205 -100q117 -48 221 -48q207 0 207 123q0 76 -92 76q-34 0 -119.5 -10.5t-119.5 -10.5
q-101 0 -168 49q-77 56 -77 155q0 183 211 183h216v94h-668v160h1248v-160zM738 1247zM588 1247zM973 32l-78 -110l-331 235l-331 -235l-77 110l408 291zM551 31zM1091 -446l-92 -98q-58 59 -337 312q-50 46 -107 46q-92 0 -92 -77q0 -80 100 -80l-35 -101q-74 0 -131 50
q-63 55 -63 144q0 93 67 146q60 48 155 48q119 0 233 -107zM556 -24zM564 -270z" />
  </g>

</svg>
