<?xml version="1.0" standalone="no"?>
<!DOCTYPE svg PUBLIC "-//W3C//DTD SVG 1.1//EN" "http://www.w3.org/Graphics/SVG/1.1/DTD/svg11.dtd" >
<svg viewBox="0 -410 2048 2048">
  <g transform="matrix(1 0 0 -1 0 1638)">
   <path fill="currentColor"
d="M1423 1058h-206q-5 72 -38 130.5t-87.5 99t-127 62.5t-156.5 22q-115 0 -207.5 -40t-157.5 -118t-100 -192t-35 -262q0 -147 35 -261.5t100 -192.5t156.5 -119t204.5 -41q88 0 161 22t126.5 65t86 105.5t39.5 143.5h206q-11 -121 -61 -215.5t-131 -159.5t-189.5 -99
t-234.5 -34q-162 0 -293 55.5t-223 158t-141.5 247.5t-49.5 325t50 325t142 248t223 158.5t292 55.5q120 0 227.5 -35t190.5 -99t135 -154.5t63 -200.5z" />
  </g>

</svg>
