<?xml version="1.0" standalone="no"?>
<!DOCTYPE svg PUBLIC "-//W3C//DTD SVG 1.1//EN" "http://www.w3.org/Graphics/SVG/1.1/DTD/svg11.dtd" >
<svg viewBox="0 -410 2048 2048">
  <g transform="matrix(1 0 0 -1 0 1638)">
   <path fill="currentColor"
d="M834 -26q-164 0 -299.5 56.5t-232 159.5t-149.5 248t-53 322q0 180 53 325t149 247t230 157t295 55q135 0 251.5 -34.5t204 -98t141.5 -153.5t64 -201h-209q-6 74 -39.5 132.5t-92 99t-138.5 61.5t-179 21q-116 0 -212 -40.5t-165 -118.5t-107 -191.5t-38 -260.5
q0 -144 38 -258t107 -193t165.5 -121t212.5 -42q168 0 288 53t201 162v232h-400v182h597v-775h-145l-52 160q-155 -186 -486 -186z" />
  </g>

</svg>
