<?xml version="1.0" standalone="no"?>
<!DOCTYPE svg PUBLIC "-//W3C//DTD SVG 1.1//EN" "http://www.w3.org/Graphics/SVG/1.1/DTD/svg11.dtd" >
<svg viewBox="0 -410 2048 2048">
  <g transform="matrix(1 0 0 -1 0 1638)">
   <path fill="currentColor"
d="M965 20l-147 -60q-31 81 -96 259q-74 -70 -206 -70q-155 0 -265 86q-123 96 -123 260q0 146 154 254q-181 96 -181 261q0 140 105.5 245t248.5 105q166 0 336 -102l-90 -130q-137 65 -233 65q-75 0 -134 -63q-55 -59 -55 -125q0 -70 54 -114q50 -42 123 -42h181v-160
h-138q-85 0 -138.5 -56t-53.5 -139q0 -89 61 -139q57 -47 146 -47q90 0 155 57q-7 24 -30 79l147 60z" />
  </g>

</svg>
