<?xml version="1.0" standalone="no"?>
<!DOCTYPE svg PUBLIC "-//W3C//DTD SVG 1.1//EN" "http://www.w3.org/Graphics/SVG/1.1/DTD/svg11.dtd" >
<svg viewBox="0 -410 2048 2048">
  <g transform="matrix(1 0 0 -1 0 1638)">
   <path fill="currentColor"
d="M1192 1160h-269v-332h-533q-44 0 -74.5 -31t-30.5 -75q0 -54 48 -85q41 -26 98 -26q49 0 112 15.5t112 15.5q142 0 236 -73q99 -77 99 -207q0 -189 -151 -294q-133 -92 -331 -92q-292 0 -460 184l115 104q118 -130 345 -130q121 0 211 46q111 57 111 164q0 63 -52 106
q-50 40 -114 40q-47 0 -103 -16t-103 -16q-329 0 -329 262q0 140 104 211q73 50 155 50h359v179h-747v160h1192v-160zM835 1247zM711 1247zM561 86zM547 78zM540 -122z" />
  </g>

</svg>
