<?xml version="1.0" standalone="no"?>
<!DOCTYPE svg PUBLIC "-//W3C//DTD SVG 1.1//EN" "http://www.w3.org/Graphics/SVG/1.1/DTD/svg11.dtd" >
<svg viewBox="0 -410 2048 2048">
  <g transform="matrix(1 0 0 -1 0 1638)">
   <path fill="currentColor"
d="M1298 1160h-444v160h444v-160zM809 1247zM1252 710h-831q-92 -67 -125 -103q-72 -77 -72 -160q0 -54 39 -108q42 -58 94 -58q71 0 120 43.5t49 113.5q-3 9 -26 76q56 20 166 60l218 -598l-168 -61l-126 347q-76 -150 -242 -150q-129 0 -216 106q-81 99 -81 229
q0 191 233 345q-73 36 -118.5 108.5t-45.5 158.5q0 131 92.5 221.5t226.5 90.5q139 0 221 -87t82 -225q0 -109 -86 -189h596v-160zM576 1059q0 59 -41.5 102t-95.5 43q-66 0 -105.5 -40.5t-39.5 -104.5q0 -134 146 -189q136 64 136 189zM809 -21zM1690 1160h-305v-1160h-176
v1160h-18v160h499v-160zM1297 86zM1297 1247z" />
  </g>

</svg>
