<?xml version="1.0" standalone="no"?>
<!DOCTYPE svg PUBLIC "-//W3C//DTD SVG 1.1//EN" "http://www.w3.org/Graphics/SVG/1.1/DTD/svg11.dtd" >
<svg viewBox="0 -410 2048 2048">
  <g transform="matrix(1 0 0 -1 0 1638)">
   <path fill="currentColor"
d="M799 833q69 -18 123 -54.5t90.5 -86.5t56 -112.5t19.5 -132.5q0 -105 -38.5 -192t-106 -149.5t-159 -97t-197.5 -34.5q-107 0 -195.5 30.5t-153 86.5t-102.5 135t-43 175h202q0 -56 19 -105.5t56.5 -87t91.5 -59.5t125 -22q68 0 123.5 23.5t94.5 65.5t60 100t21 127
q0 144 -84 220.5t-246 76.5h-75v152h45q283 0 283 261q0 115 -61.5 176t-175.5 61q-231 0 -258 -241h-201q11 96 49.5 170t98.5 123.5t138 75t169 25.5q101 0 183 -29t139.5 -81.5t89 -124.5t31.5 -159q0 -48 -12.5 -94.5t-39 -88t-66.5 -76t-94 -57.5z" />
  </g>

</svg>
