<?xml version="1.0" standalone="no"?>
<!DOCTYPE svg PUBLIC "-//W3C//DTD SVG 1.1//EN" "http://www.w3.org/Graphics/SVG/1.1/DTD/svg11.dtd" >
<svg viewBox="0 -410 2048 2048">
  <g transform="matrix(1 0 0 -1 0 1638)">
   <path fill="currentColor"
d="M1298 1085h-452v235h452v-235zM1234 653h-793q-47 -36 -76.5 -61.5t-46.5 -47t-23 -42.5t-6 -47q0 -15 4.5 -34t16 -34.5t27 -27.5t48.5 -12q43 0 65.5 24t24.5 69l-35 103l237 86l231 -634l-240 -86l-100 278q-80 -84 -211 -84q-67 0 -125 28.5t-101 77t-68 112.5
t-25 134q0 91 42 167.5t138 148.5q-27 19 -48.5 46.5t-36.5 60t-23.5 68.5t-8.5 72q0 69 27 129.5t73.5 105.5t108.5 70.5t131 25.5q74 0 134 -25t102 -69.5t65 -105t23 -131.5q0 -70 -33 -130h502v-235zM521 1018q0 17 -7 33t-18.5 28.5t-25.5 20t-29 7.5q-41 0 -64.5 -25
t-23.5 -64q0 -43 22.5 -74t65.5 -51q41 23 60.5 54.5t19.5 70.5z" />
  </g>

</svg>
