<?xml version="1.0" standalone="no"?>
<!DOCTYPE svg PUBLIC "-//W3C//DTD SVG 1.1//EN" "http://www.w3.org/Graphics/SVG/1.1/DTD/svg11.dtd" >
<svg viewBox="0 -410 2048 2048">
  <g transform="matrix(1 0 0 -1 0 1638)">
   <path fill="currentColor"
d="M1246 1160h-419v-292h-379q-163 0 -163 -136q0 -33 17.5 -60t48 -46t72 -29.5t89.5 -10.5q214 0 315 75l110 -104q-25 -20 -52.5 -36.5t-57.5 -30.5v-304h-379q-163 0 -163 -136q0 -33 17.5 -60t48 -46t72 -29.5t89.5 -10.5q214 0 315 75l110 -104q-158 -125 -421 -125
q-78 0 -147.5 23.5t-122.5 64t-84 95.5t-31 118q0 62 22.5 113.5t61.5 88t91.5 57t112.5 20.5h248v114q-71 -12 -151 -12q-78 0 -147.5 23.5t-122.5 64t-84 95.5t-31 118q0 62 22.5 113.5t61.5 88t91.5 57t112.5 20.5h248v148h-667v160h1246v-160z" />
  </g>

</svg>
