<?xml version="1.0" standalone="no"?>
<!DOCTYPE svg PUBLIC "-//W3C//DTD SVG 1.1//EN" "http://www.w3.org/Graphics/SVG/1.1/DTD/svg11.dtd" >
<svg viewBox="0 -410 2048 2048">
  <g transform="matrix(1 0 0 -1 0 1638)">
   <path fill="currentColor"
d="M742 -26q-160 0 -280 38t-200 106t-121.5 162.5t-45.5 208.5h194q8 -87 46 -150t97 -104t136.5 -61t163.5 -20q85 0 154.5 18t119 51.5t76.5 81.5t27 108q0 63 -24.5 106t-80.5 75.5t-146.5 58.5t-221.5 53q-128 29 -220 66t-152 87.5t-88.5 115.5t-28.5 149q0 91 39 168
t110.5 133t171 87.5t220.5 31.5q126 0 231.5 -31t181.5 -90t119.5 -143.5t46.5 -191.5h-194q-32 275 -376 275q-170 0 -261 -62.5t-91 -170.5q0 -47 17 -81.5t57.5 -60.5t107 -47t166.5 -42q67 -14 139 -30.5t140 -39.5t128.5 -56.5t106 -80.5t72 -111.5t26.5 -150.5
q0 -100 -42 -184t-117 -144.5t-178 -94t-226 -33.5z" />
  </g>

</svg>
