<?xml version="1.0" standalone="no"?>
<!DOCTYPE svg PUBLIC "-//W3C//DTD SVG 1.1//EN" "http://www.w3.org/Graphics/SVG/1.1/DTD/svg11.dtd" >
<svg viewBox="-2 -410 2048 2048">
  <g transform="matrix(1 0 0 -1 0 1638)">
   <path fill="currentColor"
d="M1352 1320v-160h-465v-425q37 32 70 54t65.5 36t66 20t71.5 6q86 0 154 -34l-29 -167q-9 10 -26 18t-36.5 14t-39 9.5t-34.5 3.5q-41 0 -74 -11.5t-63.5 -32t-60.5 -49t-64 -62.5v-540h-176v425q-24 -17 -58 -37.5t-73.5 -38t-83.5 -29t-88 -11.5q-98 0 -164.5 30
t-107.5 77t-59 104t-18 111q0 70 26.5 128t74.5 100t115 65.5t147 23.5q54 0 98.5 -9t80.5 -21t63.5 -25t46.5 -21v288h-713v160h1354zM711 695q-18 10 -44.5 26t-62.5 30.5t-81 25t-101 10.5q-190 0 -190 -145q0 -84 48.5 -127.5t127.5 -43.5q39 0 82.5 16t84 38.5t76.5 48
t60 43.5v78zM543 9l-113 -112l-113 112l113 113z" />
  </g>

</svg>
