<?xml version="1.0" standalone="no"?>
<!DOCTYPE svg PUBLIC "-//W3C//DTD SVG 1.1//EN" "http://www.w3.org/Graphics/SVG/1.1/DTD/svg11.dtd" >
<svg viewBox="-2 -410 2048 2048">
  <g transform="matrix(1 0 0 -1 0 1638)">
   <path fill="currentColor"
d="M1298 1160h-305v-1160h-176v299q-42 -32 -84 -53t-85 -33.5t-86.5 -17.5t-87.5 -5q-81 0 -152 31t-123 84.5t-82 125t-30 153.5q0 84 33 153.5t91 119.5t137.5 77.5t172.5 27.5q51 0 95.5 -8t82 -19.5t67.5 -24.5t51 -24v274h-819v160h1300v-160zM817 729q-27 15 -62 30
t-73.5 28t-78.5 21t-76 8q-97 0 -153 -27t-84.5 -65t-36 -79t-7.5 -70q0 -49 19 -91.5t52 -74t78 -49.5t96 -18q67 0 122.5 18.5t97.5 43t69 49t37 36.5v240zM892 355l-587 -481l-83 104l587 481z" />
  </g>

</svg>
