<?xml version="1.0" standalone="no"?>
<!DOCTYPE svg PUBLIC "-//W3C//DTD SVG 1.1//EN" "http://www.w3.org/Graphics/SVG/1.1/DTD/svg11.dtd" >
<svg viewBox="0 -410 2218 2048">
  <g transform="matrix(1 0 0 -1 0 1638)">
   <path fill="currentColor"
d="M2218 1160h-304v-1160h-176v1160h-370v-1160h-176v609h-460q62 -30 104 -105t42 -159q0 -171 -121 -280q-117 -105 -290 -105q-146 0 -271 72q-129 75 -193 203l139 68q124 -186 323 -186q94 0 168 63q79 66 79 159q0 135 -91 210q-84 70 -219 70q-44 0 -85 -7v157
q25 -3 43 -3q120 0 208 67q94 72 94 182q0 85 -58.5 146.5t-143.5 61.5q-117 0 -244 -61l-46 138q158 81 295 81q155 0 261 -97q110 -99 110 -252q0 -151 -136 -263h492v391h-177v160h1203v-160zM1074 1247zM1826 1247zM1074 86z" />
  </g>

</svg>
