<?xml version="1.0" standalone="no"?>
<!DOCTYPE svg PUBLIC "-//W3C//DTD SVG 1.1//EN" "http://www.w3.org/Graphics/SVG/1.1/DTD/svg11.dtd" >
<svg viewBox="0 -410 2048 2048">
  <g transform="matrix(1 0 0 -1 0 1638)">
   <path fill="currentColor"
d="M819 1038q0 -96 -83 -200q-13 -17 -154 -163q-82 -86 -82 -136q0 -47 108.5 -166t108.5 -179q0 -108 -153 -234l-101 131q76 51 76 103q0 32 -109.5 155t-109.5 190q0 84 111 218q-93 83 -124 123q-59 76 -59 158q0 129 77 223q82 99 209 99q135 0 213 -97
q72 -88 72 -225zM661 1038q0 58 -31 103q-35 52 -93 52q-57 0 -94 -52q-33 -45 -33 -103q0 -102 125 -190q126 88 126 190z" />
  </g>

</svg>
