<?xml version="1.0" standalone="no"?>
<!DOCTYPE svg PUBLIC "-//W3C//DTD SVG 1.1//EN" "http://www.w3.org/Graphics/SVG/1.1/DTD/svg11.dtd" >
<svg viewBox="0 -410 2048 2048">
  <g transform="matrix(1 0 0 -1 0 1638)">
   <path fill="currentColor"
d="M1244 1160h-467q34 -21 52.5 -63t18.5 -94q0 -65 -25.5 -105.5t-78.5 -78.5q35 -9 63 -25t57 -40t56.5 -55.5t48.5 -72t34 -90t13 -108.5q0 -104 -41 -190t-113 -148t-169.5 -96t-210.5 -34q-273 0 -445 192l142 127q115 -138 294 -138q79 0 146 18.5t115.5 53.5t76 85
t27.5 112q0 58 -20.5 107t-56.5 83.5t-84 54t-103 19.5q-87 0 -128.5 -7t-119.5 -38l-62 146q21 9 46.5 19t58 19t75 16.5t86.5 12.5q91 27 115.5 67.5t24.5 98.5q0 79 -45.5 115.5t-143.5 36.5h-481v160h1244v-160z" />
  </g>

</svg>
