<?xml version="1.0" standalone="no"?>
<!DOCTYPE svg PUBLIC "-//W3C//DTD SVG 1.1//EN" "http://www.w3.org/Graphics/SVG/1.1/DTD/svg11.dtd" >
<svg viewBox="0 -410 2048 2048">
  <g transform="matrix(1 0 0 -1 0 1638)">
   <path fill="currentColor"
d="M1512 1160h-305v-1160h-176v358q-39 -26 -84.5 -46t-92 -34t-92 -21t-84.5 -7q-83 0 -171.5 29t-169 81.5t-146.5 125t-104 159.5l71 105q46 -23 89 -23q65 0 121.5 23.5t99.5 64.5t70.5 96.5t34.5 118.5q-18 -18 -40 -35t-48.5 -30.5t-56.5 -21.5t-64 -8q-63 0 -111 19
t-80.5 51.5t-49.5 76.5t-17 94q0 54 22 100t60.5 80.5t90.5 54t112 19.5q76 0 140.5 -26.5t112 -74t74.5 -113.5t27 -145q0 -88 -33 -172.5t-89.5 -151.5t-131 -110t-157.5 -48q21 -32 62 -63.5t90 -57t100 -41.5t92 -16q44 0 91 10t93 27.5t89 42.5t80 55v614h-177v160h658
v-160zM538 1190q-25 37 -62.5 61t-82.5 24q-126 0 -126 -99q0 -24 9 -41.5t23 -29t30.5 -17.5t31.5 -6q21 0 45.5 6t48.5 19t46 33.5t37 49.5z" />
  </g>

</svg>
