<?xml version="1.0" standalone="no"?>
<!DOCTYPE svg PUBLIC "-//W3C//DTD SVG 1.1//EN" "http://www.w3.org/Graphics/SVG/1.1/DTD/svg11.dtd" >
<svg viewBox="-957 -410 2048 2048">
  <g transform="matrix(1 0 0 -1 0 1638)">
   <path fill="currentColor"
d="M-490 1575zM604 1160h-304v-1160h-176v1160h-126v160h24q-85 79 -170 159q-103 92 -187 137q-110 58 -222 58q-101 0 -166 -54q-68 -57 -68 -156q0 -97 98 -181l-98 -115q-166 142 -166 324q0 165 120 266q112 94 281 94q225 0 450 -179q100 -79 352 -353h358v-160z
M-490 86zM198 1447z" />
  </g>

</svg>
