<?xml version="1.0" standalone="no"?>
<!DOCTYPE svg PUBLIC "-//W3C//DTD SVG 1.1//EN" "http://www.w3.org/Graphics/SVG/1.1/DTD/svg11.dtd" >
<svg viewBox="0 -410 2048 2048">
  <g transform="matrix(1 0 0 -1 0 1638)">
   <path fill="currentColor"
d="M1192 1085h-251v-324h-536q-22 0 -36.5 -15t-14.5 -38q0 -27 23 -40q29 -18 65 -18q20 0 42.5 3.5t48.5 8.5q68 17 115 17q76 0 140.5 -22t112 -61.5t74.5 -95.5t27 -123q0 -89 -35.5 -162.5t-100 -126t-154.5 -81.5t-199 -29q-290 0 -486 216l173 156q125 -138 313 -138
q50 0 95 10t79.5 28.5t55 46t20.5 63.5q0 19 -9 35.5t-24 29t-34 19.5t-39 7q-21 0 -46 -4.5t-50 -10.5t-49 -10.5t-45 -4.5q-348 0 -348 285q0 61 22 113.5t60.5 90t90 59t111.5 21.5h284v95h-687v235h1192v-235z" />
  </g>

</svg>
