<?xml version="1.0" standalone="no"?>
<!DOCTYPE svg PUBLIC "-//W3C//DTD SVG 1.1//EN" "http://www.w3.org/Graphics/SVG/1.1/DTD/svg11.dtd" >
<svg viewBox="0 -410 2048 2048">
  <g transform="matrix(1 0 0 -1 0 1638)">
   <path fill="currentColor"
d="M968 1113q0 -70 -10 -136.5t-40 -130.5t-85 -126.5t-144 -124.5q91 -77 140 -159t49 -160q0 -146 -107 -235q-98 -81 -235 -81t-234 81q-106 88 -106 235q0 152 180 308q-89 62 -143.5 126.5t-84 130.5t-39.5 134t-10 138q0 129 76 247l147 -99q-47 -65 -47 -139
q0 -45 2.5 -90.5t26 -97.5t77.5 -111t155 -131q73 52 122 104.5t79 105.5t42.5 107.5t12.5 112.5q0 74 -47 139l147 99q76 -118 76 -247zM697 276q0 108 -161 225q-159 -117 -159 -225q0 -137 159 -137q161 0 161 137z" />
  </g>

</svg>
