<?xml version="1.0" standalone="no"?>
<!DOCTYPE svg PUBLIC "-//W3C//DTD SVG 1.1//EN" "http://www.w3.org/Graphics/SVG/1.1/DTD/svg11.dtd" >
<svg viewBox="-2 -410 2048 2048">
  <g transform="matrix(1 0 0 -1 0 1638)">
   <path fill="currentColor"
d="M1246 1160h-412v-392h-218q-191 0 -273 -48q-117 -67 -117 -257q0 -107 71 -180.5t173 -73.5q87 0 174 48q94 52 94 115q0 14 -18 82l174 41l166 -634l-173 -45l-97 365q-93 -139 -324 -139q-184 0 -302.5 122t-118.5 307q0 223 132 346q136 126 389 126h92v217h-660v160
h1248v-160zM746 1247zM588 1247zM588 86zM947 -64zM570 -129l-113 -112l-113 112l113 113z" />
  </g>

</svg>
