<?xml version="1.0" standalone="no"?>
<!DOCTYPE svg PUBLIC "-//W3C//DTD SVG 1.1//EN" "http://www.w3.org/Graphics/SVG/1.1/DTD/svg11.dtd" >
<svg viewBox="-47 -410 2048 2048">
  <g transform="matrix(1 0 0 -1 0 1638)">
   <path fill="currentColor"
d="M1192 1085h-303v235h303v-235zM1149 472l-116 52l-487 -376l-159 177l376 297l-240 100l-418 -326l-152 202l318 250q-41 45 -63 100t-22 116q0 59 26 112.5t69.5 94.5t99 65.5t115.5 24.5q67 0 124.5 -21.5t99 -60t65 -92t23.5 -116.5q0 -96 -50 -178l391 -155v-266z
M552 1051q0 25 -17.5 42.5t-40.5 17.5t-41 -17.5t-18 -42.5q0 -26 17.5 -44t41.5 -18t41 18t17 44zM1512 1085h-260v-1085h-254v1085h-17v235h531v-235z" />
  </g>

</svg>
