<?xml version="1.0" standalone="no"?>
<!DOCTYPE svg PUBLIC "-//W3C//DTD SVG 1.1//EN" "http://www.w3.org/Graphics/SVG/1.1/DTD/svg11.dtd" >
<svg viewBox="0 -410 2048 2048">
  <g transform="matrix(1 0 0 -1 0 1638)">
   <path fill="currentColor"
d="M293 819q150 164 345 164q94 0 176.5 -37t144 -102t96.5 -154.5t35 -195.5q0 -107 -34 -202t-96 -165.5t-149.5 -111.5t-195.5 -41q-124 0 -221 48.5t-163.5 142t-101 231t-34.5 314.5q0 833 536 833q84 0 157.5 -24t130.5 -71t94.5 -118t50.5 -165h-201
q-26 225 -242 225q-70 0 -127 -37.5t-99 -110t-68.5 -179t-33.5 -244.5zM291 668q2 -130 25.5 -231t64.5 -170t99.5 -104.5t130.5 -35.5q64 0 115 27.5t87 75.5t55.5 112.5t19.5 138.5q0 76 -20 140t-57 110.5t-89.5 73t-117.5 26.5q-160 0 -313 -163z" />
  </g>

</svg>
