<?xml version="1.0" standalone="no"?>
<!DOCTYPE svg PUBLIC "-//W3C//DTD SVG 1.1//EN" "http://www.w3.org/Graphics/SVG/1.1/DTD/svg11.dtd" >
<svg viewBox="-2 -410 2048 2048">
  <g transform="matrix(1 0 0 -1 0 1638)">
   <path fill="currentColor"
d="M1458 1160h-410v-369h-232q-111 0 -182 -49q-82 -58 -82 -167q0 -95 59.5 -158t156.5 -63q91 0 127 60l-22 99l174 40l158 -737l-174 -40l-59 263q-67 -65 -186 -107q-113 -40 -213 -40q-148 0 -249 60q-123 72 -123 209q0 57 30 86q-122 51 -163 142q-25 56 -25 169
q0 70 43 116t99 46q50 0 86.5 -39.5t36.5 -91.5q0 -60 -39 -96.5t-94 -36.5v-18q0 -31 35 -59q41 -33 104 -33q10 0 78 26l62 -94q-32 -3 -63 -26q-35 -26 -35 -57q0 -80 70 -126q60 -39 145 -39q109 0 207 46q104 48 161 133l-5 17q-96 -52 -167 -52q-162 0 -277.5 118
t-115.5 278q0 189 113 298q105 101 269 101h116v191h-874v160h1460v-160zM960 1247zM694 1247zM694 62zM1091 -104z" />
  </g>

</svg>
