<?xml version="1.0" standalone="no"?>
<!DOCTYPE svg PUBLIC "-//W3C//DTD SVG 1.1//EN" "http://www.w3.org/Graphics/SVG/1.1/DTD/svg11.dtd" >
<svg viewBox="0 -410 2048 2048">
  <g transform="matrix(1 0 0 -1 0 1638)">
   <path fill="currentColor"
d="M975 617q0 -143 -33 -257t-92 -194t-141 -123t-179 -43q-106 0 -188 34.5t-137.5 120t-84 229.5t-28.5 363v573h174v-548q0 -136 10.5 -233t29 -164t44 -107.5t56 -62t64 -28.5t67.5 -7q43 0 86 16.5t79 55.5t62.5 103t35.5 159q-28 -17 -57 -25.5t-64 -8.5
q-57 0 -103.5 22.5t-79.5 60.5t-51 89.5t-18 110.5q0 60 19 112.5t53.5 91t84 60.5t110.5 22q147 0 214 -105.5t67 -316.5zM800 753q0 27 -8 51t-22.5 42t-35 28.5t-45.5 10.5q-50 0 -78.5 -37.5t-28.5 -94.5q0 -28 7 -52t20 -42t32.5 -28t45.5 -10t47 10.5t35.5 28.5
t22.5 42t8 51z" />
  </g>

</svg>
