<?xml version="1.0" standalone="no"?>
<!DOCTYPE svg PUBLIC "-//W3C//DTD SVG 1.1//EN" "http://www.w3.org/Graphics/SVG/1.1/DTD/svg11.dtd" >
<svg viewBox="-2 -410 2048 2048">
  <g transform="matrix(1 0 0 -1 0 1638)">
   <path fill="currentColor"
d="M1298 1160h-305v-1160h-176v319q-167 -129 -343 -129q-81 0 -153.5 31t-126.5 84.5t-85.5 125t-31.5 153.5q0 84 34.5 153.5t94.5 119.5t141 77.5t174 27.5q51 0 95.5 -8t82 -19.5t67.5 -24.5t51 -24v274h-819v160h1300v-160zM817 729q-27 15 -62 30t-73.5 28t-78.5 21
t-76 8q-16 0 -34.5 -1.5t-36 -4.5t-32.5 -8t-23 -11l318 -356q25 16 49 34.5t49 39.5v220zM605 367l-312 348q-57 -57 -57 -140q0 -49 20.5 -91.5t55.5 -74t81.5 -49.5t97.5 -18q63 0 114 25zM860 355l-587 -481l-83 104l587 481z" />
  </g>

</svg>
