<?xml version="1.0" standalone="no"?>
<!DOCTYPE svg PUBLIC "-//W3C//DTD SVG 1.1//EN" "http://www.w3.org/Graphics/SVG/1.1/DTD/svg11.dtd" >
<svg viewBox="-2 -410 2048 2048">
  <g transform="matrix(1 0 0 -1 0 1638)">
   <path fill="currentColor"
d="M1246 1160h-421v-332h-498q-95 0 -95 -97q0 -79 81 -120q61 -31 137 -31q116 0 186 54l114 -81q-84 -100 -254 -115q-89 -83 -89 -190q0 -76 63 -123q57 -43 134 -43q60 0 120.5 34t93.5 87l-41 149l152 41l157 -578l-152 -39l-71 259q-120 -109 -272 -109
q-138 0 -237 91q-101 95 -101 233q0 102 75 208q-247 62 -247 268q0 123 88 196q75 63 170 63h329v175h-670v160h1248v-160zM746 1247zM588 1247zM588 62zM994 -104z" />
  </g>

</svg>
