<?xml version="1.0" standalone="no"?>
<!DOCTYPE svg PUBLIC "-//W3C//DTD SVG 1.1//EN" "http://www.w3.org/Graphics/SVG/1.1/DTD/svg11.dtd" >
<svg viewBox="0 -410 2048 2048">
  <g transform="matrix(1 0 0 -1 0 1638)">
   <path fill="currentColor"
d="M1030 1160h-356v-526q0 -179 -72.5 -269.5t-232.5 -90.5q-59 0 -106.5 20t-81.5 56.5t-52.5 88t-18.5 115.5q0 53 21 99t58 80t86.5 53.5t106.5 19.5q29 0 58 -4.5t58 -12.5v371h-498v160h1030v-160zM498 642q-28 10 -56 16t-60 6q-24 0 -46 -9t-38.5 -24t-26 -35
t-9.5 -42q0 -24 8.5 -44.5t23.5 -35.5t34.5 -23.5t40.5 -8.5q35 0 59.5 9t40 32t22.5 61.5t7 97.5z" />
  </g>

</svg>
