<?xml version="1.0" standalone="no"?>
<!DOCTYPE svg PUBLIC "-//W3C//DTD SVG 1.1//EN" "http://www.w3.org/Graphics/SVG/1.1/DTD/svg11.dtd" >
<svg viewBox="-558 -410 2048 2048">
  <g transform="matrix(1 0 0 -1 0 1638)">
   <path fill="currentColor"
d="M-226 1575zM604 1160h-304v-1160h-176v1160h-126v160h66q-203 322 -321 322q-138 0 -138 -123q0 -57 131 -256l-134 -83q-160 230 -160 351q0 119 73 192q77 77 212 77q160 0 321 -179q73 -81 213 -301h343v-160zM-226 86zM198 1447zM409 1737q-42 22 -80 22
q-78 0 -131 -52t-53 -130q0 -68 47 -171q40 -81 79 -163l-116 -45q-45 94 -91 188q-50 112 -50 200q0 133 85.5 221t217.5 88q29 0 92 -18v-140zM226 1247z" />
  </g>

</svg>
