<?xml version="1.0" standalone="no"?>
<!DOCTYPE svg PUBLIC "-//W3C//DTD SVG 1.1//EN" "http://www.w3.org/Graphics/SVG/1.1/DTD/svg11.dtd" >
<svg viewBox="0 -440 2048 2048">
  <g transform="matrix(1 0 0 -1 0 1638)">
   <path fill="currentColor"
d="M1192 1160h-367v-332h-453q-27 0 -50.5 -10t-41 -27.5t-28 -40.5t-10.5 -49q0 -38 17.5 -69.5t47.5 -50.5q49 29 110.5 46t138.5 17q96 0 168 -27.5t119 -72.5t70.5 -103.5t23.5 -120.5q0 -48 -15.5 -90t-37 -77t-45 -60.5t-39.5 -40.5l-123 114q10 11 25 25t29.5 31.5
t25 38.5t10.5 45t-8.5 53.5t-32 55t-66 43t-110.5 17.5q-56 0 -107 -16.5t-90 -47.5t-62.5 -75.5t-23.5 -100.5q0 -92 38.5 -157.5t98 -113.5t130.5 -82.5t136 -63.5l-79 -141q-56 16 -114 41.5t-113 61t-103.5 81t-85 102.5t-57.5 125t-21 148q0 24 5 53t16.5 60.5
t28.5 63.5t41 63q-52 42 -84 101t-32 124q0 57 20 108t56 90t85.5 61.5t108.5 22.5h307v177h-649v160h1192v-160zM227 -328l-113 -112l-113 112l113 113z" />
  </g>

</svg>
