<?xml version="1.0" standalone="no"?>
<!DOCTYPE svg PUBLIC "-//W3C//DTD SVG 1.1//EN" "http://www.w3.org/Graphics/SVG/1.1/DTD/svg11.dtd" >
<svg viewBox="-2 -410 2048 2048">
  <g transform="matrix(1 0 0 -1 0 1638)">
   <path fill="currentColor"
d="M1458 1160h-1460v160h1460v-160zM1352 703q0 -292 -179 -498q-188 -215 -477 -215q-180 0 -316 75q-165 91 -165 257q0 80 63 153q-75 33 -122 105.5t-47 154.5q0 134 98 209q86 66 212 66q53 0 109 -24v-156q-42 32 -100 32q-153 0 -153 -128q3 -116 125 -125
q37 29 79 51l61 -116q-51 -32 -98 -76q-61 -57 -61 -120q0 -101 107 -153q84 -41 197 -41q177 0 319 131q134 124 174 302q-63 -24 -126 -24q-109 0 -175 64.5t-66 173.5q0 107 73 170q69 61 178 61q290 0 290 -329zM1193 795q0 48 -33 79t-90 31q-51 0 -86.5 -32t-35.5 -78
t35.5 -78.5t86.5 -32.5t87 32.5t36 78.5z" />
  </g>

</svg>
