<?xml version="1.0" standalone="no"?>
<!DOCTYPE svg PUBLIC "-//W3C//DTD SVG 1.1//EN" "http://www.w3.org/Graphics/SVG/1.1/DTD/svg11.dtd" >
<svg viewBox="-783 -410 2048 2048">
  <g transform="matrix(1 0 0 -1 0 1638)">
   <path fill="currentColor"
d="M-394 1575zM604 1160h-304v-1160h-176v1160h-126v160h58q-325 371 -486 371q-73 0 -122 -32q-59 -39 -59 -114q0 -85 133 -282l-133 -85q-84 123 -113 180q-59 113 -59 207q0 146 104 228q96 77 249 77q177 0 388 -200q113 -108 298 -350h348v-160zM-394 86zM198 1447z
" />
  </g>

</svg>
