<?xml version="1.0" standalone="no"?>
<!DOCTYPE svg PUBLIC "-//W3C//DTD SVG 1.1//EN" "http://www.w3.org/Graphics/SVG/1.1/DTD/svg11.dtd" >
<svg viewBox="0 -410 2048 2048">
  <g transform="matrix(1 0 0 -1 0 1638)">
   <path fill="currentColor"
d="M1112 959l-108 -76q-52 86 -137 138l75 106q105 -66 170 -168zM761 1207l-22 -128q-47 11 -95 11q-51 0 -98 -11l-22 128q61 14 118 14q59 0 119 -14zM1186 677q0 -58 -14 -119l-128 22q11 47 11 96q0 51 -11 98l128 22q14 -61 14 -119zM1112 395q-66 -103 -170 -169
l-75 107q85 52 137 138zM419 1021q-85 -52 -137 -138l-108 76q65 102 170 168zM242 580l-129 -22q-13 57 -13 119t13 119l129 -22q-11 -47 -11 -98q0 -49 11 -96zM761 147q-60 -14 -119 -14q-57 0 -118 14l22 128q47 -11 98 -11q48 0 95 11zM419 333l-75 -107
q-104 66 -170 169l108 76q52 -86 137 -138z" />
  </g>

</svg>
