<?xml version="1.0" standalone="no"?>
<!DOCTYPE svg PUBLIC "-//W3C//DTD SVG 1.1//EN" "http://www.w3.org/Graphics/SVG/1.1/DTD/svg11.dtd" >
<svg viewBox="0 -410 2048 2048">
  <g transform="matrix(1 0 0 -1 0 1638)">
   <path fill="currentColor"
d="M1352 1160h-1352v160h1352v-160zM1306 754h-439q29 -41 39 -85t10 -98q0 -60 -18 -108.5t-46.5 -86.5t-64 -66.5t-70 -48t-65 -31t-48.5 -16.5l136 -142l-112 -113l-432 441l116 112l151 -154q42 0 91.5 11t92 37.5t71 71t28.5 111.5q0 24 -3.5 47t-14 44t-28.5 40
t-47 34h-172v160h825v-160zM1710 1160h-305v-1160h-176v1160h-18v160h499v-160zM1317 86zM1317 1247z" />
  </g>

</svg>
