<?xml version="1.0" standalone="no"?>
<!DOCTYPE svg PUBLIC "-//W3C//DTD SVG 1.1//EN" "http://www.w3.org/Graphics/SVG/1.1/DTD/svg11.dtd" >
<svg viewBox="0 -410 2048 2048">
  <g transform="matrix(1 0 0 -1 0 1638)">
   <path fill="currentColor"
d="M662 755q-41 -8 -92 -24.5t-95 -41t-74 -58.5t-30 -78q0 -87 79 -129t224 -42q57 0 113 14t104 34.5t85 43.5t55 41v645h-230v160h711v-160h-305v-1160h-176v305q-24 -13 -61 -30t-84.5 -32t-104 -25.5t-120.5 -10.5q-49 0 -102.5 5t-105.5 18t-99.5 35.5t-83 58t-57 85
t-21.5 116.5q0 51 19.5 103t64.5 102q-227 103 -227 349q0 87 24.5 156t69.5 118.5t108.5 78t142.5 33.5q45 3 88.5 -13.5t78 -48.5t56 -77t21.5 -99t-20.5 -93.5t-53.5 -65.5t-74 -38.5t-83 -11.5q-64 1 -113.5 29.5t-78.5 68.5q-1 -8 -1.5 -16t-0.5 -16q0 -42 15.5 -82
t43 -73t66 -56.5t85.5 -31.5q40 20 86.5 37t102.5 31zM407 1161q33 0 57.5 16t24.5 49q0 48 -23.5 69t-70.5 19q-67 -3 -115 -53q9 -16 19 -33.5t25 -32.5t35 -24.5t48 -9.5z" />
  </g>

</svg>
