<?xml version="1.0" standalone="no"?>
<!DOCTYPE svg PUBLIC "-//W3C//DTD SVG 1.1//EN" "http://www.w3.org/Graphics/SVG/1.1/DTD/svg11.dtd" >
<svg viewBox="0 -410 2048 2048">
  <g transform="matrix(1 0 0 -1 0 1638)">
   <path fill="currentColor"
d="M1216 700l-118 -118l-118 118l118 118zM1246 1160h-323v-332h-523q-109 0 -109 -104q0 -43 36 -78.5t78 -35.5q54 0 123.5 18t122.5 18q136 0 234 -76q105 -82 105 -208q0 -181 -155 -291q-138 -98 -326 -98q-300 0 -461 187l126 115q123 -146 335 -146q108 0 197 47
q111 59 111 164q0 58 -46.5 100.5t-105.5 42.5q-48 0 -108.5 -17t-108.5 -17q-139 0 -220 65q-89 72 -89 210q0 105 65 178q73 82 194 82h349v176h-747v160h1246v-160zM754 1247zM658 1247zM588 86zM547 74zM499 -122z" />
  </g>

</svg>
