<?xml version="1.0" standalone="no"?>
<!DOCTYPE svg PUBLIC "-//W3C//DTD SVG 1.1//EN" "http://www.w3.org/Graphics/SVG/1.1/DTD/svg11.dtd" >
<svg viewBox="-2 -410 2048 2048">
  <g transform="matrix(1 0 0 -1 0 1638)">
   <path fill="currentColor"
d="M1778 1160h-305v-1160h-175v164q-201 -164 -449 -164q-320 0 -472 160q-195 188 -312 447l142 120l74 -141q110 74 110 177v397h-393v160h1780v-160zM1297 363v70q-108 -64 -214 -64q-138 0 -231 81q-99 86 -99 228q0 129 78 219q83 96 216 96q37 0 90 -17v-144
q-29 12 -65 12q-77 0 -123 -45.5t-46 -122.5q0 -71 57 -117q54 -43 126 -43q111 0 211 65v579h-730v-358q0 -131 -23 -185q-41 -105 -183 -167q112 -164 226 -226q123 -67 262 -67q276 10 448 206z" />
  </g>

</svg>
