<?xml version="1.0" standalone="no"?>
<!DOCTYPE svg PUBLIC "-//W3C//DTD SVG 1.1//EN" "http://www.w3.org/Graphics/SVG/1.1/DTD/svg11.dtd" >
<svg viewBox="-2 -410 2048 2048">
  <g transform="matrix(1 0 0 -1 0 1638)">
   <path fill="currentColor"
d="M977 1160h-979v160h979v-160zM931 417q-54 -59 -114 -102t-120 -71t-117.5 -41t-106.5 -13q-80 0 -152.5 31t-126.5 84.5t-85.5 125t-31.5 153.5q0 84 34.5 153.5t94.5 119.5t141 77.5t173 27.5q48 0 95 -8t87.5 -19.5t70.5 -24t44 -22.5v-150q-16 8 -44.5 21t-69 26
t-92.5 22t-115 9q-42 0 -96 -24l313 -358q138 76 218 205v-222zM597 373l-304 346q-57 -47 -57 -144q0 -49 20.5 -91.5t55.5 -74t81.5 -49.5t96.5 -18q64 0 107 31z" />
  </g>

</svg>
