<?xml version="1.0" standalone="no"?>
<!DOCTYPE svg PUBLIC "-//W3C//DTD SVG 1.1//EN" "http://www.w3.org/Graphics/SVG/1.1/DTD/svg11.dtd" >
<svg viewBox="0 -410 2048 2048">
  <g transform="matrix(1 0 0 -1 0 1638)">
   <path fill="currentColor"
d="M834 925q0 -88 -21.5 -170t-64 -150t-106.5 -119t-149 -77l318 -350l-130 -120l-588 640l131 121l123 -134q6 -6 31 -6q58 0 110 28.5t91.5 78t62.5 116t23 142.5q0 11 -1.5 23t-3.5 24q-21 -33 -50.5 -60.5t-65.5 -47t-77 -30t-84 -10.5q-70 0 -122.5 20.5t-87.5 55
t-52.5 81t-17.5 99.5q0 63 25.5 116.5t69.5 93t103 61.5t126 22q94 0 169.5 -32t128 -91t81 -141.5t28.5 -183.5zM1563 1160h-305v-1160h-176v1160h-125v160h606v-160zM594 1115q-33 42 -76.5 68t-90.5 26q-34 0 -63 -9t-50 -25.5t-32.5 -40.5t-11.5 -54q0 -23 11 -41
t29.5 -31.5t42.5 -20.5t50 -7q24 0 48.5 5t48.5 20t47.5 41.5t46.5 68.5z" />
  </g>

</svg>
