<?xml version="1.0" standalone="no"?>
<!DOCTYPE svg PUBLIC "-//W3C//DTD SVG 1.1//EN" "http://www.w3.org/Graphics/SVG/1.1/DTD/svg11.dtd" >
<svg viewBox="0 -410 2048 2048">
  <g transform="matrix(1 0 0 -1 0 1638)">
   <path fill="currentColor"
d="M886 700q-150 -166 -346 -166q-94 0 -176 36.5t-143 102t-96.5 155t-35.5 196.5q0 106 34 200.5t96 165t149.5 112t195.5 41.5q123 0 219.5 -48t163 -141.5t102 -231t35.5 -315.5q0 -833 -538 -833q-84 0 -157.5 24t-130 71t-93.5 118t-50 165h201q25 -225 242 -225
q70 0 127 37.5t98.5 110t67.5 179.5t35 246zM888 850q-2 130 -25.5 231t-65 169.5t-99.5 104t-130 35.5q-63 0 -114 -27t-87 -74.5t-56 -112.5t-20 -140q0 -76 20 -140t56.5 -110.5t89 -72.5t117.5 -26q161 0 314 163z" />
  </g>

</svg>
