<?xml version="1.0" standalone="no"?>
<!DOCTYPE svg PUBLIC "-//W3C//DTD SVG 1.1//EN" "http://www.w3.org/Graphics/SVG/1.1/DTD/svg11.dtd" >
<svg viewBox="0 -410 2048 2048">
  <g transform="matrix(1 0 0 -1 0 1638)">
   <path fill="currentColor"
d="M1200 550h-520v-145q0 -67 -22 -119.5t-63.5 -89t-101.5 -56t-135 -19.5q-59 0 -109.5 22t-88 60.5t-59 90t-21.5 111.5q0 305 334 305h83v217q-28 -15 -59.5 -25.5t-77.5 -10.5q-59 0 -106 19t-81 52.5t-52 80.5t-18 103q0 66 21.5 120t59 92t89.5 59t112 21
q78 0 134 -22t91.5 -72t52.5 -131t17 -199v-304h520v-160zM1246 1160h-445v160h445v-160zM497 550h-83q-50 0 -83 -8.5t-53.5 -26t-29 -45t-8.5 -65.5q0 -29 8.5 -54.5t24 -45t37.5 -31t48 -11.5q139 0 139 171v116zM497 1076q-1 95 -27.5 142t-84.5 47q-61 0 -95.5 -29
t-34.5 -89q0 -119 105 -119q24 0 41.5 3t33 9t30 15t32.5 21z" />
  </g>

</svg>
