<?xml version="1.0" standalone="no"?>
<!DOCTYPE svg PUBLIC "-//W3C//DTD SVG 1.1//EN" "http://www.w3.org/Graphics/SVG/1.1/DTD/svg11.dtd" >
<svg viewBox="-4 -410 2048 2048">
  <g transform="matrix(1 0 0 -1 0 1638)">
   <path fill="currentColor"
d="M1200 1160h-380v-371h-197q-372 0 -372 -292q0 -165 115 -249q101 -73 270 -73q-79 68 -79 170q0 114 76 185q72 69 180 69q115 0 182 -71.5t67 -187.5q0 -171 -147 -253q-119 -67 -312 -67q-233 0 -378 129q-151 135 -151 369q0 202 137 320q130 112 334 112h99v210
h-646v160h1202v-160zM732 1247zM588 1247zM929 331q0 54 -34.5 92t-83.5 38t-83.5 -38t-34.5 -92t34.5 -92.5t83.5 -38.5t83.5 38.5t34.5 92.5zM595 114zM588 86zM588 -122zM222 -177l-113 -112l-113 112l113 113z" />
  </g>

</svg>
