<?xml version="1.0" standalone="no"?>
<!DOCTYPE svg PUBLIC "-//W3C//DTD SVG 1.1//EN" "http://www.w3.org/Graphics/SVG/1.1/DTD/svg11.dtd" >
<svg viewBox="-2 -410 2048 2048">
  <g transform="matrix(1 0 0 -1 0 1638)">
   <path fill="currentColor"
d="M1520 1160h-846v-325q84 91 245 91q193 0 316.5 -124t123.5 -317q0 -117 -37 -237h-158q40 105 40 237q0 136 -87.5 224.5t-219.5 88.5q-37 0 -80 -18q179 -87 179 -360q0 -200 -160 -331q-151 -123 -359 -123q-243 0 -424 200l137 120q114 -141 287 -141q136 0 234 71
q107 77 107 204q0 107 -68 178t-179 71q-158 0 -305 -78v187q111 41 232 57v325h-500v160h1522v-160zM748 1247zM586 1247zM748 86z" />
  </g>

</svg>
