<?xml version="1.0" standalone="no"?>
<!DOCTYPE svg PUBLIC "-//W3C//DTD SVG 1.1//EN" "http://www.w3.org/Graphics/SVG/1.1/DTD/svg11.dtd" >
<svg viewBox="-2 -410 2048 2048">
  <g transform="matrix(1 0 0 -1 0 1638)">
   <path fill="currentColor"
d="M1412 1160h-259v-1160h-176v299q-175 -118 -378 -118q-182 0 -305 92q-130 97 -130 254q0 69 36.5 134.5t95.5 92.5q-170 49 -170 230q0 95 76 176h-204v160h1414v-160zM694 86zM694 1247zM977 480v680h-582q-93 -69 -93 -162q0 -149 211 -149h156v-145h-156
q-68 0 -117 -46q-54 -51 -54 -131q0 -89 85 -141q73 -45 172 -45q178 0 378 139zM1065 1247zM1065 86z" />
  </g>

</svg>
