<?xml version="1.0" standalone="no"?>
<!DOCTYPE svg PUBLIC "-//W3C//DTD SVG 1.1//EN" "http://www.w3.org/Graphics/SVG/1.1/DTD/svg11.dtd" >
<svg viewBox="0 -410 2048 2048">
  <g transform="matrix(1 0 0 -1 0 1638)">
   <path fill="currentColor"
d="M736 1038q0 -96 -83 -200q-13 -17 -154 -163q-83 -86 -83 -136q0 -47 109 -166t109 -179q0 -108 -153 -234l-102 131q77 51 77 103q0 32 -110 155t-110 190q0 84 111 218q-93 83 -124 123q-59 76 -59 158q0 129 77 223q82 99 209 99q136 0 214 -97q72 -88 72 -225z
M578 1038q0 58 -31 103q-35 52 -93 52t-95 -52q-33 -45 -33 -103q0 -102 126 -190q126 88 126 190z" />
  </g>

</svg>
