<?xml version="1.0" standalone="no"?>
<!DOCTYPE svg PUBLIC "-//W3C//DTD SVG 1.1//EN" "http://www.w3.org/Graphics/SVG/1.1/DTD/svg11.dtd" >
<svg viewBox="0 -410 2048 2048">
  <g transform="matrix(1 0 0 -1 0 1638)">
   <path fill="currentColor"
d="M1405 1739l-140 -141l-141 141l141 140zM1787 1617q-49 -161 -202 -257q-143 -89 -320 -89q-176 0 -320 89q-153 96 -202 257h178q39 -95 141 -146q90 -45 203 -45t202 45q102 51 141 146h179zM2020 814q0 -158 -91 -264q-94 -109 -241 -109q-49 0 -91 8v183
q32 -17 82 -17q78 0 125 62q43 57 43 144q0 77 -35 133q-41 66 -113 66q-83 0 -133 -150q-71 -211 -123 -277q-118 -150 -368 -150q-17 0 -38 4q4 -25 4 -54q0 -180 -140 -291q-129 -102 -312 -102q-335 0 -557 308l147 104q72 -102 178 -165q113 -67 232 -67q107 0 182 51
q91 61 91 174q0 118 -76 184q-68 58 -170 58q-74 0 -129 -25v184q45 21 124 21q42 0 92 -10q71 52 71 163q0 91 -65 150q-63 56 -157 56q-175 0 -264 -125l-152 93q127 211 417 211q164 0 285.5 -112t121.5 -273q0 -156 -103 -240q64 -42 115 -117q92 -16 121 -16
q149 0 226 154q59 143 119 286q87 154 261 154q161 0 244 -110q77 -101 77 -277z" />
  </g>

</svg>
