<?xml version="1.0" standalone="no"?>
<!DOCTYPE svg PUBLIC "-//W3C//DTD SVG 1.1//EN" "http://www.w3.org/Graphics/SVG/1.1/DTD/svg11.dtd" >
<svg viewBox="-2 -410 2048 2048">
  <g transform="matrix(1 0 0 -1 0 1638)">
   <path fill="currentColor"
d="M1732 1160h-259v-1160h-175v211q-201 -120 -449 -120q-259 0 -457 166q-85 71 -311 354l113 113q34 -39 105 -116q92 52 92 155v397h-393v160h1734v-160zM854 86zM854 1247zM1297 383v50q-108 -64 -214 -64q-138 0 -231 81q-99 86 -99 228q0 129 78 219q83 96 216 96
q37 0 90 -17v-144q-29 12 -65 12q-77 0 -123 -45.5t-46 -122.5q0 -71 57 -117q54 -43 126 -43q111 0 211 65v579h-730v-358q0 -131 -23 -185q-33 -75 -144 -137q73 -104 187 -166q123 -67 262 -67q276 0 448 136zM1385 1247zM1385 86z" />
  </g>

</svg>
