<?xml version="1.0" standalone="no"?>
<!DOCTYPE svg PUBLIC "-//W3C//DTD SVG 1.1//EN" "http://www.w3.org/Graphics/SVG/1.1/DTD/svg11.dtd" >
<svg viewBox="-2 -410 2048 2048">
  <g transform="matrix(1 0 0 -1 0 1638)">
   <path fill="currentColor"
d="M1626 1160h-739v-288q86 59 207 59q175 0 276 -92q111 -101 111 -293q0 -116 -56 -227q-54 -107 -146 -180l-98 135q121 111 121 272q0 103 -59 163.5t-159 60.5q-130 0 -197 -95v-675h-176v360q-154 -112 -303 -112q-167 0 -260 101q-89 95 -89 255q0 167 105 265
q101 94 258 94q47 0 102 -16v-159q-54 19 -102 19q-190 0 -190 -203q0 -81 46 -136q49 -58 130 -58q80 0 170 47.5t133 113.5v589h-713v160h1628v-160zM799 1247zM799 86zM399 90l-113 -112l-113 112l113 113z" />
  </g>

</svg>
