<?xml version="1.0" standalone="no"?>
<!DOCTYPE svg PUBLIC "-//W3C//DTD SVG 1.1//EN" "http://www.w3.org/Graphics/SVG/1.1/DTD/svg11.dtd" >
<svg viewBox="-1380 -667 2048 2048">
  <g transform="matrix(1 0 0 -1 0 1638)">
   <path fill="currentColor"
d="M-200 -558q-61 -109 -190 -109q-78 0 -132 52t-54 123q0 26 8 51q-76 12 -118 71q-40 54 -40 131q0 78 52 136q60 67 166 67q61 0 103.5 40t42.5 103q0 73 -54 113q-48 37 -126 37q-73 0 -128 -32q-63 -36 -63 -95v-29h-140v29q0 59 -63 95q-55 32 -128 32
q-77 0 -126 -38q-54 -41 -54 -114q0 -138 141 -138q49 0 72 6v-134q-44 -6 -91 -6q-116 0 -188 82q-70 78 -70 194q0 137 92 214q88 75 236 75q141 0 249 -95q108 95 249 95q148 0 236 -76q92 -79 92 -216q0 -114 -75 -186t-206 -72q-39 0 -66 -25q-30 -27 -30 -72
q0 -95 91 -95q66 0 108 42l71 -57q-47 -76 -131 -83q-10 -14 -10 -44q0 -35 28.5 -61.5t64.5 -26.5q88 0 117 80zM-818 -270z" />
  </g>

</svg>
