<?xml version="1.0" standalone="no"?>
<!DOCTYPE svg PUBLIC "-//W3C//DTD SVG 1.1//EN" "http://www.w3.org/Graphics/SVG/1.1/DTD/svg11.dtd" >
<svg viewBox="-1380 -492 2048 2048">
  <g transform="matrix(1 0 0 -1 0 1638)">
   <path fill="currentColor"
d="M-226 103q0 -123 -76.5 -196.5t-204.5 -73.5q-100 0 -100 -101q0 -41 28 -67t71 -26q79 0 151 84l104 -83q-114 -132 -255 -132q-100 0 -170 65t-70 161q0 103 66.5 168.5t175.5 65.5q62 0 103 37.5t41 99.5q0 73 -54 114q-49 38 -126 38q-73 0 -128 -32q-63 -36 -63 -95
v-29h-140v29q0 59 -63 95q-55 32 -128 32q-77 0 -126 -38q-54 -41 -54 -114q0 -61 36 -98q39 -40 105 -40q49 0 72 6v-134q-44 -6 -91 -6q-115 0 -188 82q-70 78 -70 194q0 137 92 214q88 75 236 75q141 0 249 -95q108 95 249 95q147 0 237.5 -79t90.5 -216zM-818 -206z" />
  </g>

</svg>
