<?xml version="1.0" standalone="no"?>
<!DOCTYPE svg PUBLIC "-//W3C//DTD SVG 1.1//EN" "http://www.w3.org/Graphics/SVG/1.1/DTD/svg11.dtd" >
<svg viewBox="-2 -410 2048 2048">
  <g transform="matrix(1 0 0 -1 0 1638)">
   <path fill="currentColor"
d="M1727 1160h-259v-1160h-176v470h-343q41 -52 41 -127q0 -171 -146 -275q-130 -94 -311 -94q-13 0 -27 3l185 -280l-153 -94l-238 397q-67 14 -141 64t-108 102l117 105q110 -131 333 -131q116 0 203 43q112 55 112 160q0 61 -48.5 101t-111.5 40q-42 0 -134.5 -16.5
t-147.5 -16.5q-132 0 -218 70q-93 76 -93 208q0 257 284 257h250v174h-599v160h1729v-160zM852 1247zM1292 630v530h-519v-332h-453q-43 0 -70 -30t-27 -73q0 -54 39 -85q36 -30 92 -30q46 0 132.5 16.5t133.5 16.5q70 0 134 -13h538zM852 -242zM1380 1247zM1380 86z" />
  </g>

</svg>
