<?xml version="1.0" standalone="no"?>
<!DOCTYPE svg PUBLIC "-//W3C//DTD SVG 1.1//EN" "http://www.w3.org/Graphics/SVG/1.1/DTD/svg11.dtd" >
<svg viewBox="-2 -410 2048 2048">
  <g transform="matrix(1 0 0 -1 0 1638)">
   <path fill="currentColor"
d="M1520 1160h-471v-271q129 0 230 -93q103 -96 103 -223q0 -140 -89 -236q-15 -16 -165 -131q-89 -68 -89 -141q0 -77 50 -130q46 -48 107 -48q96 0 149 99l125 -75q-101 -175 -306 -175q-126 0 -212 103q-80 97 -80 223q0 106 87 200q81 71 162 141q87 78 87 144
q0 74 -60 121q-52 40 -115 40q-41 0 -60 -19l-284 -283l-124 120l98 98q-81 107 -213 107q-208 0 -208 -201q0 -186 329 -366l-77 -163q-150 60 -286 217q-146 170 -146 317q0 157 106.5 254.5t283.5 97.5q191 0 314 -158q35 35 107 108v323h-875v160h1522v-160zM748 1247z
M961 1247zM748 86z" />
  </g>

</svg>
