<?xml version="1.0" standalone="no"?>
<!DOCTYPE svg PUBLIC "-//W3C//DTD SVG 1.1//EN" "http://www.w3.org/Graphics/SVG/1.1/DTD/svg11.dtd" >
<svg viewBox="0 -410 2048 2048">
  <g transform="matrix(1 0 0 -1 0 1638)">
   <path fill="currentColor"
d="M995 173q0 -134 -146 -253l-104 141q69 49 69 89q0 50 -108 128q-118 81 -236 161q-155 112 -234 217q-128 171 -128 330q0 144 97 253q106 121 274 121q143 0 243.5 -99t100.5 -242q0 -135 -90 -242q-96 -112 -229 -112q-32 0 -52 4q48 -49 202 -147q168 -105 231 -161
q110 -97 110 -188zM661 1003q0 78 -55 133t-133 55t-133 -55t-55 -133t55 -133t133 -55t133 55t55 133z" />
  </g>

</svg>
