<?xml version="1.0" standalone="no"?>
<!DOCTYPE svg PUBLIC "-//W3C//DTD SVG 1.1//EN" "http://www.w3.org/Graphics/SVG/1.1/DTD/svg11.dtd" >
<svg viewBox="0 -410 2048 2048">
  <g transform="matrix(1 0 0 -1 0 1638)">
   <path fill="currentColor"
d="M1160 1113q0 -280 -357 -529q180 -153 180 -308q0 -147 -107 -235q-97 -81 -235 -81t-235 81q-106 88 -106 235q0 152 180 308q-357 249 -357 529q0 128 76 247l147 -99q-47 -64 -47 -139q0 -123 113 -254q101 -115 229 -176q129 61 229 176q114 131 114 254
q0 75 -47 139l147 99q76 -119 76 -247zM802 276q0 108 -161 225q-160 -117 -160 -225q0 -137 160 -137q161 0 161 137z" />
  </g>

</svg>
