<?xml version="1.0" standalone="no"?>
<!DOCTYPE svg PUBLIC "-//W3C//DTD SVG 1.1//EN" "http://www.w3.org/Graphics/SVG/1.1/DTD/svg11.dtd" >
<svg viewBox="0 -410 2048 2048">
  <g transform="matrix(1 0 0 -1 0 1638)">
   <path fill="currentColor"
d="M1308 617q0 -263 -168 -442q-164 -175 -397 -175q-287 0 -433 190q-123 161 -162 484q-25 202 -25 646h174q0 -585 58 -801q94 -349 393 -349q148 0 252.5 94.5t125.5 239.5q-55 -34 -125 -34q-118 0 -197 86q-75 82 -75 197q0 126 86 208q81 78 199 78q294 0 294 -422z
M1133 753q0 55 -36.5 93.5t-87.5 38.5t-87.5 -38.5t-36.5 -93.5t36.5 -93.5t87.5 -38.5t87.5 38.5t36.5 93.5z" />
  </g>

</svg>
