<?xml version="1.0" standalone="no"?>
<!DOCTYPE svg PUBLIC "-//W3C//DTD SVG 1.1//EN" "http://www.w3.org/Graphics/SVG/1.1/DTD/svg11.dtd" >
<svg viewBox="-2 -410 2048 2048">
  <g transform="matrix(1 0 0 -1 0 1638)">
   <path fill="currentColor"
d="M1626 1160h-488v-123q130 -29 173 -158q25 -77 25 -246v-9q197 -59 197 -224q0 -135 -92 -256l-99 85q60 104 60 168q0 72 -89 101q-54 -228 -216 -366q-168 -142 -401 -142q-199 0 -331 78q-150 90 -150 254q0 80 63 153q-75 34 -122 106t-47 154q0 117 98 198
q93 77 212 77q68 0 109 -14v-156q-41 22 -109 22q-59 0 -100 -34q-44 -36 -44 -94q0 -128 190 -128q42 0 85 13v-153q-36 -6 -109 -12q-60 -43 -60 -106q0 -94 95 -147q85 -47 209 -47q181 0 312 99.5t169 270.5q-150 21 -245 88q-118 82 -118 219q0 73 46 132.5t113 73.5
v123h-964v160h1628v-160zM1050 1247zM801 1247zM1197 786q0 60 -40.5 102.5t-97.5 42.5q-47 0 -84 -28.5t-37 -71.5q0 -83 92 -134q70 -39 161 -48q6 38 6 137zM801 86zM739 94zM699 -122z" />
  </g>

</svg>
