<?xml version="1.0" standalone="no"?>
<!DOCTYPE svg PUBLIC "-//W3C//DTD SVG 1.1//EN" "http://www.w3.org/Graphics/SVG/1.1/DTD/svg11.dtd" >
<svg viewBox="-2 -421 2048 2048">
  <g transform="matrix(1 0 0 -1 0 1638)">
   <path fill="currentColor"
d="M1146 1160h-373v-332h-453q-45 0 -72 -31.5t-27 -73.5q0 -46 31 -77q34 -35 96 -35q50 0 147 17t146 17q167 0 263 -90q88 -82 88 -205q0 -149 -121 -256q-136 -121 -362 -121l208 -301l-153 -93l-262 418q-66 9 -141 59q-71 46 -114 103l127 116q38 -58 128 -101
q86 -41 159 -41q354 0 354 215q0 58 -49 98q-47 37 -106 37q-46 0 -135.5 -17t-135.5 -17q-143 0 -232 64q-102 73 -102 210q0 119 72 190.5t191 71.5h279v175h-599v160h556q-183 137 -183 311q0 128 92.5 210.5t232.5 82.5q51 0 91 -11v-148q-37 18 -84 18
q-175 0 -175 -171q0 -78 101 -171q75 -70 170 -121h347v-160zM561 1247zM685 1247zM561 -128z" />
  </g>

</svg>
