<?xml version="1.0" standalone="no"?>
<!DOCTYPE svg PUBLIC "-//W3C//DTD SVG 1.1//EN" "http://www.w3.org/Graphics/SVG/1.1/DTD/svg11.dtd" >
<svg viewBox="0 -410 2048 2048">
  <g transform="matrix(1 0 0 -1 0 1638)">
   <path fill="currentColor"
d="M721 1247zM1466 1160h-259v-1160h-176v361q-164 -111 -353 -111q-231 0 -422 170q-141 126 -169 225l71 105q45 -23 89 -23q330 0 330 344q0 80 -48 139q-50 63 -127 63q-135 0 -135 -97q0 -94 94 -94v-134q-114 0 -186 67q-69 64 -69 161q0 112 92 186q86 68 202 68
q146 0 243 -94q102 -100 102 -265q0 -212 -116 -343q-112 -128 -295 -139q35 -67 137.5 -118t203.5 -51q202 0 356 124v616h-177v160h612v-160zM721 86zM1119 1247zM1119 86z" />
  </g>

</svg>
