<?xml version="1.0" standalone="no"?>
<!DOCTYPE svg PUBLIC "-//W3C//DTD SVG 1.1//EN" "http://www.w3.org/Graphics/SVG/1.1/DTD/svg11.dtd" >
<svg viewBox="-2 -410 2048 2048">
  <g transform="matrix(1 0 0 -1 0 1638)">
   <path fill="currentColor"
d="M1626 1160h-420v-272q109 0 209 -111q113 -125 113 -301q0 -209 -116 -339q-123 -137 -336 -137q-200 0 -323 142q-75 -89 -131 -115.5t-168 -26.5q-184 0 -285 113q-104 116 -104 334q0 180 118 310q124 138 313 138q210 0 338 -132q95 102 196 117v280h-1032v160h1628
v-160zM801 86zM1118 1247zM801 1247zM1347 476q0 108 -63 174t-157 66q-127 0 -203 -169q-45 -134 -90 -269q40 -49 119 -76q67 -23 129 -23q128 0 199 86q66 80 66 211zM1129 94zM761 616q-101 100 -265 100q-114 0 -185 -85q-65 -77 -65 -184q0 -136 62 -206
q54 -62 146 -62q100 0 167 83q50 61 88 179q26 88 52 175zM801 -122zM430 -177l-113 -112l-113 112l113 113z" />
  </g>

</svg>
