<?xml version="1.0" standalone="no"?>
<!DOCTYPE svg PUBLIC "-//W3C//DTD SVG 1.1//EN" "http://www.w3.org/Graphics/SVG/1.1/DTD/svg11.dtd" >
<svg viewBox="-541 -557 2048 2048">
  <g transform="matrix(1 0 0 -1 0 1638)">
   <path fill="currentColor"
d="M77 -434q-89 -123 -263 -123q-108 0 -183 72t-75 186q0 33 16 62q-113 44 -113 170q0 110 91 151q60 27 182 27v-110q-141 0 -141 -77q0 -36 31 -60q28 -22 66 -22q66 0 111 34l79 -63q-57 -74 -181 -74q-8 -18 -8 -41q0 -56 35.5 -91.5t87.5 -35.5q100 0 169 72z
M-301 86z" />
  </g>

</svg>
