<?xml version="1.0" standalone="no"?>
<!DOCTYPE svg PUBLIC "-//W3C//DTD SVG 1.1//EN" "http://www.w3.org/Graphics/SVG/1.1/DTD/svg11.dtd" >
<svg viewBox="0 -410 2048 2048">
  <g transform="matrix(1 0 0 -1 0 1638)">
   <path fill="currentColor"
d="M721 1247zM1466 1160h-259v-1160h-176v307q-136 -90 -338 -90q-148 0 -273 81q-148 96 -148 250q0 86 75 155q-298 95 -298 376q0 168 87 273q94 113 258 113q108 0 183 -69t75 -177q0 -215 -231 -215v133q33 0 57.5 24t24.5 57q0 96 -108 96q-83 0 -136 -76
q-46 -68 -46 -154q0 -100 78.5 -173.5t176.5 -73.5q100 0 194 38v-156q-123 -33 -127 -35q-70 -32 -70 -105q0 -101 95 -149q70 -36 167 -36q170 0 304 108v658h-230v160h665v-160zM721 86zM1119 1247zM1119 86z" />
  </g>

</svg>
