<?xml version="1.0" standalone="no"?>
<!DOCTYPE svg PUBLIC "-//W3C//DTD SVG 1.1//EN" "http://www.w3.org/Graphics/SVG/1.1/DTD/svg11.dtd" >
<svg viewBox="0 -410 2048 2048">
  <g transform="matrix(1 0 0 -1 0 1638)">
   <path fill="currentColor"
d="M1151 375q0 -210 -325 -415l-56 169q61 29 137 101q94 89 94 151q0 126 -80 255q-84 -52 -115 -66q-96 -42 -206 -42q-166 0 -302 121q-140 125 -140 287q0 157 94 281q67 88 157 135l72 -160q-43 -39 -87 -78q-60 -72 -60 -180q0 -114 99 -185q82 -60 170 -60
q135 0 237 79q-103 112 -103 193q0 77 60.5 136t144.5 59q80 0 144 -65t64 -141q0 -121 -106 -225q77 -128 98 -227q9 -40 9 -123zM1013 951q0 65 -71 65q-66 0 -66 -64q0 -54 69 -117q68 54 68 116z" />
  </g>

</svg>
