<?xml version="1.0" standalone="no"?>
<!DOCTYPE svg PUBLIC "-//W3C//DTD SVG 1.1//EN" "http://www.w3.org/Graphics/SVG/1.1/DTD/svg11.dtd" >
<svg viewBox="0 -410 2048 2048">
  <g transform="matrix(1 0 0 -1 0 1638)">
   <path fill="currentColor"
d="M747 1247zM1518 1160h-259v-1160h-176v1160h-125v160h560v-160zM835 925q0 -186 -95 -320.5t-257 -185.5l329 -360l-131 -120l-588 640l131 121l123 -134q6 -6 31 -6q123 0 209 125q78 112 78 240q0 99 -68 188q-73 96 -170 96q-64 0 -108 -31q-49 -35 -49 -98
q0 -90 105 -90q24 0 51 8v-150q-37 -14 -101 -14q-102 0 -164 75q-58 69 -58 171q0 131 100 214q93 79 224 79q193 0 304 -129q104 -123 104 -319zM747 86zM1171 1247zM1171 86z" />
  </g>

</svg>
