<?xml version="1.0" standalone="no"?>
<!DOCTYPE svg PUBLIC "-//W3C//DTD SVG 1.1//EN" "http://www.w3.org/Graphics/SVG/1.1/DTD/svg11.dtd" >
<svg viewBox="-2 -558 2048 2048">
  <g transform="matrix(1 0 0 -1 0 1638)">
   <path fill="currentColor"
d="M1520 1160h-471v-212q151 0 240.5 -83.5t89.5 -228.5q0 -100 -85 -194q-25 -28 -157 -138q-85 -71 -85 -116q0 -56 37 -100t92 -44q43 0 107 47l76 -114q-154 -90 -172 -103q-92 -69 -92 -143q0 -137 137 -137q121 0 154 72l102 -72q-32 -70 -104 -111t-156 -41
q-127 0 -214 79t-87 203q0 140 109 222q-158 78 -158 266q0 89 82 173q76 64 152 129q82 69 82 122q0 50 -45.5 94.5t-97.5 44.5q-39 0 -67 -28l-290 -290l-132 132l91 91q-85 95 -185 95q-90 0 -147.5 -61t-57.5 -152q0 -120 88 -234q78 -100 194 -163l-75 -163
q-171 92 -273 234q-114 157 -114 340q0 152 106 266q100 108 219 108q107 0 187 -40q76 -37 168 -132l105 106v276h-875v160h1522v-160zM748 1247zM961 1247zM748 242z" />
  </g>

</svg>
