<?xml version="1.0" standalone="no"?>
<!DOCTYPE svg PUBLIC "-//W3C//DTD SVG 1.1//EN" "http://www.w3.org/Graphics/SVG/1.1/DTD/svg11.dtd" >
<svg viewBox="-2 -410 2048 2048">
  <g transform="matrix(1 0 0 -1 0 1638)">
   <path fill="currentColor"
d="M1146 1160h-373v-332h-401q-63 0 -100 -46q-30 -37 -30 -81q0 -61 42.5 -102t105.5 -41q57 0 165.5 27.5t165.5 27.5q126 0 212 -78q90 -81 90 -208q0 -106 -118 -226l-104 115q66 41 66 120q0 54 -45 88q-42 30 -99 30q-53 0 -147 -26q-99 -27 -146 -30
q-75 -50 -75 -157q0 -138 118 -261q42 -43 232 -188l-131 -120q-220 187 -268 242q-131 153 -131 328q0 104 76 195q-74 29 -126.5 104.5t-52.5 159.5q0 106 67 188q77 94 203 94h255v177h-599v160h1148v-160zM662 -128zM561 -42zM685 1247zM561 1247z" />
  </g>

</svg>
